//Event file generated from Sappy .s format.
	#include "MPlayDef.event"

	#define	sans_grp  MusicVoices
	#define	sans_pri  0
	#define	sans_rev  0
	#define	sans_mvl  75
	#define	sans_key  0
	#define	sans_tbs  1
	#define	sans_exg  0
	#define	sans_cmp  1

	// .rodata
	//	sans
	ALIGN 4

//**************** Track 1 (Midi-Chn.1) ****************//

sans_1:
	BYTE	KEYSH   sans_key+0
sans_1_B1:
// 000   ----------------------------------------
	BYTE	TEMPO   120*sans_tbs/2
	BYTE		VOICE   81
	BYTE		PAN     c_v-12
	BYTE		VOL     100*sans_mvl/mxv
	BYTE		BEND    c_v+0
	BYTE		N06     Dn3   v100
	BYTE	W06
	BYTE		N06   
	BYTE	W06
	BYTE		        Dn4 
	BYTE	W12
	BYTE		        An3 
	BYTE	W18
	BYTE		        Gs3 
	BYTE	W12
	BYTE		        Gn3 
	BYTE	W12
	BYTE		N12     Fn3 
	BYTE	W12
	BYTE		N06     Dn3 
	BYTE	W06
	BYTE		        Fn3 
	BYTE	W06
	BYTE		        Gn3 
	BYTE	W06
// 001   ----------------------------------------
sans_1_001:
	BYTE		N06     Cn3   v100
	BYTE	W06
	BYTE		N06   
	BYTE	W06
	BYTE		        Dn4 
	BYTE	W12
	BYTE		        An3 
	BYTE	W18
	BYTE		        Gs3 
	BYTE	W12
	BYTE		        Gn3 
	BYTE	W12
	BYTE		N12     Fn3 
	BYTE	W12
	BYTE		N06     Dn3 
	BYTE	W06
	BYTE		        Fn3 
	BYTE	W06
	BYTE		        Gn3 
	BYTE	W06
	BYTE	PEND
// 002   ----------------------------------------
sans_1_002:
	BYTE		N06     Bn2   v100
	BYTE	W06
	BYTE		N06   
	BYTE	W06
	BYTE		        Dn4 
	BYTE	W12
	BYTE		        An3 
	BYTE	W18
	BYTE		        Gs3 
	BYTE	W12
	BYTE		        Gn3 
	BYTE	W12
	BYTE		N12     Fn3 
	BYTE	W12
	BYTE		N06     Dn3 
	BYTE	W06
	BYTE		        Fn3 
	BYTE	W06
	BYTE		        Gn3 
	BYTE	W06
	BYTE	PEND
// 003   ----------------------------------------
sans_1_003:
	BYTE		N06     As2   v100
	BYTE	W06
	BYTE		N06   
	BYTE	W06
	BYTE		        Dn4 
	BYTE	W12
	BYTE		        An3 
	BYTE	W18
	BYTE		        Gs3 
	BYTE	W12
	BYTE		        Gn3 
	BYTE	W12
	BYTE		N12     Fn3 
	BYTE	W12
	BYTE		N06     Dn3 
	BYTE	W06
	BYTE		        Fn3 
	BYTE	W06
	BYTE		        Gn3 
	BYTE	W06
	BYTE	PEND
// 004   ----------------------------------------
sans_1_004:
	BYTE		N06     Dn3   v100
	BYTE	W06
	BYTE		N06   
	BYTE	W06
	BYTE		        Dn4 
	BYTE	W12
	BYTE		        An3 
	BYTE	W18
	BYTE		        Gs3 
	BYTE	W12
	BYTE		        Gn3 
	BYTE	W12
	BYTE		N12     Fn3 
	BYTE	W12
	BYTE		N06     Dn3 
	BYTE	W06
	BYTE		        Fn3 
	BYTE	W06
	BYTE		        Gn3 
	BYTE	W06
	BYTE	PEND
// 005   ----------------------------------------
	BYTE	PATT
	 POIN2	sans_1_001
// 006   ----------------------------------------
	BYTE	PATT
	 POIN2	sans_1_002
// 007   ----------------------------------------
	BYTE	PATT
	 POIN2	sans_1_003
// 008   ----------------------------------------
	BYTE	W96
// 009   ----------------------------------------
	BYTE	W96
// 010   ----------------------------------------
	BYTE	W96
// 011   ----------------------------------------
	BYTE	W96
// 012   ----------------------------------------
	BYTE	W96
// 013   ----------------------------------------
	BYTE	W96
// 014   ----------------------------------------
	BYTE	W96
// 015   ----------------------------------------
	BYTE	W96
// 016   ----------------------------------------
	BYTE	W96
// 017   ----------------------------------------
	BYTE	W96
// 018   ----------------------------------------
	BYTE	W96
// 019   ----------------------------------------
	BYTE	W96
// 020   ----------------------------------------
	BYTE	PATT
	 POIN2	sans_1_004
// 021   ----------------------------------------
	BYTE	PATT
	 POIN2	sans_1_001
// 022   ----------------------------------------
	BYTE	PATT
	 POIN2	sans_1_002
// 023   ----------------------------------------
	BYTE	PATT
	 POIN2	sans_1_003
// 024   ----------------------------------------
	BYTE	W96
// 025   ----------------------------------------
	BYTE	W96
// 026   ----------------------------------------
	BYTE	W96
// 027   ----------------------------------------
	BYTE	W96
// 028   ----------------------------------------
	BYTE	W96
// 029   ----------------------------------------
	BYTE	W96
// 030   ----------------------------------------
	BYTE	W96
// 031   ----------------------------------------
	BYTE	W96
// 032   ----------------------------------------
	BYTE	W96
// 033   ----------------------------------------
	BYTE	W96
// 034   ----------------------------------------
	BYTE	W96
// 035   ----------------------------------------
	BYTE	W96
// 036   ----------------------------------------
	BYTE	W96
// 037   ----------------------------------------
	BYTE	W96
// 038   ----------------------------------------
	BYTE	W96
// 039   ----------------------------------------
	BYTE	W96
// 040   ----------------------------------------
	BYTE	W96
// 041   ----------------------------------------
	BYTE	W96
// 042   ----------------------------------------
	BYTE	W96
// 043   ----------------------------------------
	BYTE	W96
// 044   ----------------------------------------
	BYTE	W96
// 045   ----------------------------------------
	BYTE	W96
// 046   ----------------------------------------
	BYTE	W96
// 047   ----------------------------------------
	BYTE	W96
// 048   ----------------------------------------
	BYTE	PATT
	 POIN2	sans_1_004
// 049   ----------------------------------------
	BYTE	PATT
	 POIN2	sans_1_001
// 050   ----------------------------------------
	BYTE	PATT
	 POIN2	sans_1_002
// 051   ----------------------------------------
	BYTE	PATT
	 POIN2	sans_1_003
// 052   ----------------------------------------
	BYTE	PATT
	 POIN2	sans_1_004
// 053   ----------------------------------------
	BYTE	PATT
	 POIN2	sans_1_001
// 054   ----------------------------------------
sans_1_054:
	BYTE	W12
	BYTE		N06     Fn2   v100
	BYTE		N06     Fn3 
	BYTE		N06     Fn4 
	BYTE	W12
	BYTE		        En2 
	BYTE		N06     En3 
	BYTE		N06     En4 
	BYTE	W18
	BYTE		        Cn2 
	BYTE		N06     Cn3 
	BYTE		N06     Cn4 
	BYTE	W12
	BYTE		        En2 
	BYTE		N06     En3 
	BYTE		N06     En4 
	BYTE	W11
	BYTE		        Dn2 
	BYTE		N06     Dn3 
	BYTE		N06     Dn4 
	BYTE	W13
	BYTE		        An1 
	BYTE		N06     An2 
	BYTE		N06     An3 
	BYTE	W06
	BYTE		        Cn2 
	BYTE		N06     Cn3 
	BYTE		N06     Cn4 
	BYTE	W06
	BYTE		        Dn2 
	BYTE		N06     Dn3 
	BYTE		N06     Dn4 
	BYTE	W06
	BYTE	PEND
// 055   ----------------------------------------
	BYTE	PATT
	 POIN2	sans_1_054
// 056   ----------------------------------------
	BYTE	W96
// 057   ----------------------------------------
	BYTE	W96
// 058   ----------------------------------------
	BYTE	W96
// 059   ----------------------------------------
	BYTE	W96
// 060   ----------------------------------------
	BYTE	W96
// 061   ----------------------------------------
	BYTE	W96
// 062   ----------------------------------------
	BYTE	W96
// 063   ----------------------------------------
	BYTE	W96
// 064   ----------------------------------------
	BYTE	W96
// 065   ----------------------------------------
	BYTE	W96
// 066   ----------------------------------------
	BYTE	W96
// 067   ----------------------------------------
	BYTE	W96
// 068   ----------------------------------------
	BYTE	W96
// 069   ----------------------------------------
	BYTE	W96
// 070   ----------------------------------------
	BYTE	PATT
	 POIN2	sans_1_004
// 071   ----------------------------------------
	BYTE	PATT
	 POIN2	sans_1_004
// 072   ----------------------------------------
	BYTE	PATT
	 POIN2	sans_1_003
// 073   ----------------------------------------
	BYTE	PATT
	 POIN2	sans_1_001
// 074   ----------------------------------------
	BYTE	PATT
	 POIN2	sans_1_004
// 075   ----------------------------------------
	BYTE	PATT
	 POIN2	sans_1_004
// 076   ----------------------------------------
	BYTE	PATT
	 POIN2	sans_1_003
// 077   ----------------------------------------
	BYTE	PATT
	 POIN2	sans_1_001
	BYTE	GoTo
	 POIN2	sans_1_B1
sans_1_B2:
// 078   ----------------------------------------
	BYTE		BEND    c_v+0
	BYTE	FINE

//**************** Track 2 (Midi-Chn.2) ****************//

sans_2:
	BYTE	KEYSH   sans_key+0
sans_2_B1:
// 000   ----------------------------------------
	BYTE		VOICE   29
	BYTE		PAN     c_v-8
	BYTE		VOL     98*sans_mvl/mxv
	BYTE		BEND    c_v+0
	BYTE	W96
// 001   ----------------------------------------
	BYTE	W96
// 002   ----------------------------------------
	BYTE	W96
// 003   ----------------------------------------
	BYTE	W96
// 004   ----------------------------------------
	BYTE		VOL     64*sans_mvl/mxv
	BYTE		N06     Dn2   v100
	BYTE	W12
	BYTE		N06   
	BYTE	W12
	BYTE		N06   
	BYTE	W06
	BYTE		N06   
	BYTE	W12
	BYTE		N06   
	BYTE	W12
	BYTE		N06   
	BYTE	W12
	BYTE		N06   
	BYTE	W06
	BYTE		N06   
	BYTE	W06
	BYTE		N06   
	BYTE	W06
	BYTE		N06   
	BYTE	W06
	BYTE		N06   
	BYTE	W06
// 005   ----------------------------------------
sans_2_005:
	BYTE		N06     Cn2   v100
	BYTE	W12
	BYTE		N06   
	BYTE	W12
	BYTE		N06   
	BYTE	W06
	BYTE		N06   
	BYTE	W12
	BYTE		N06   
	BYTE	W12
	BYTE		N06   
	BYTE	W12
	BYTE		N06   
	BYTE	W06
	BYTE		N06   
	BYTE	W06
	BYTE		N06   
	BYTE	W06
	BYTE		N06   
	BYTE	W06
	BYTE		N06   
	BYTE	W06
	BYTE	PEND
// 006   ----------------------------------------
sans_2_006:
	BYTE		N06     Bn1   v100
	BYTE	W12
	BYTE		N06   
	BYTE	W12
	BYTE		N06   
	BYTE	W06
	BYTE		N06   
	BYTE	W12
	BYTE		N06   
	BYTE	W12
	BYTE		N06   
	BYTE	W12
	BYTE		N06   
	BYTE	W06
	BYTE		N06   
	BYTE	W06
	BYTE		N06   
	BYTE	W06
	BYTE		N06   
	BYTE	W06
	BYTE		N06   
	BYTE	W06
	BYTE	PEND
// 007   ----------------------------------------
sans_2_007:
	BYTE		N06     As1   v100
	BYTE	W12
	BYTE		N06   
	BYTE	W12
	BYTE		N06   
	BYTE	W06
	BYTE		N06   
	BYTE	W12
	BYTE		N06   
	BYTE	W12
	BYTE		        Cn2 
	BYTE	W12
	BYTE		N06   
	BYTE	W06
	BYTE		N06   
	BYTE	W06
	BYTE		N06   
	BYTE	W06
	BYTE		N06   
	BYTE	W06
	BYTE		N06   
	BYTE	W06
	BYTE	PEND
// 008   ----------------------------------------
	BYTE		        Dn2 
	BYTE	W02
	BYTE		VOL     98*sans_mvl/mxv
	BYTE	W10
	BYTE		N06   
	BYTE	W12
	BYTE		N06   
	BYTE	W06
	BYTE		N06   
	BYTE	W12
	BYTE		N06   
	BYTE	W12
	BYTE		N06   
	BYTE	W12
	BYTE		N06   
	BYTE	W06
	BYTE		N06   
	BYTE	W06
	BYTE		N06   
	BYTE	W06
	BYTE		N06   
	BYTE	W06
	BYTE		N06   
	BYTE	W06
// 009   ----------------------------------------
	BYTE	PATT
	 POIN2	sans_2_005
// 010   ----------------------------------------
	BYTE	PATT
	 POIN2	sans_2_006
// 011   ----------------------------------------
	BYTE	PATT
	 POIN2	sans_2_007
// 012   ----------------------------------------
sans_2_012:
	BYTE		N06     Dn2   v100
	BYTE	W12
	BYTE		N06   
	BYTE	W12
	BYTE		N06   
	BYTE	W06
	BYTE		N06   
	BYTE	W12
	BYTE		N06   
	BYTE	W12
	BYTE		N06   
	BYTE	W12
	BYTE		N06   
	BYTE	W06
	BYTE		N06   
	BYTE	W06
	BYTE		N06   
	BYTE	W06
	BYTE		N06   
	BYTE	W06
	BYTE		N06   
	BYTE	W06
	BYTE	PEND
// 013   ----------------------------------------
	BYTE	PATT
	 POIN2	sans_2_005
// 014   ----------------------------------------
	BYTE	PATT
	 POIN2	sans_2_006
// 015   ----------------------------------------
	BYTE	PATT
	 POIN2	sans_2_007
// 016   ----------------------------------------
	BYTE	PATT
	 POIN2	sans_2_012
// 017   ----------------------------------------
	BYTE	PATT
	 POIN2	sans_2_005
// 018   ----------------------------------------
	BYTE	PATT
	 POIN2	sans_2_006
// 019   ----------------------------------------
	BYTE	PATT
	 POIN2	sans_2_007
// 020   ----------------------------------------
	BYTE	PATT
	 POIN2	sans_2_012
// 021   ----------------------------------------
	BYTE	PATT
	 POIN2	sans_2_005
// 022   ----------------------------------------
	BYTE	PATT
	 POIN2	sans_2_006
// 023   ----------------------------------------
	BYTE	PATT
	 POIN2	sans_2_007
// 024   ----------------------------------------
sans_2_024:
	BYTE		N06     As1   v100
	BYTE	W12
	BYTE		N06   
	BYTE	W12
	BYTE		N06   
	BYTE	W06
	BYTE		N06   
	BYTE	W12
	BYTE		N06   
	BYTE	W12
	BYTE		N06   
	BYTE	W12
	BYTE		N06   
	BYTE	W06
	BYTE		N06   
	BYTE	W06
	BYTE		N06   
	BYTE	W06
	BYTE		N06   
	BYTE	W06
	BYTE		N06   
	BYTE	W06
	BYTE	PEND
// 025   ----------------------------------------
	BYTE	PATT
	 POIN2	sans_2_005
// 026   ----------------------------------------
	BYTE	PATT
	 POIN2	sans_2_012
// 027   ----------------------------------------
sans_2_027:
	BYTE		N06     Cs2   v100
	BYTE	W12
	BYTE		N06   
	BYTE	W12
	BYTE		N06   
	BYTE	W06
	BYTE		N06   
	BYTE	W12
	BYTE		N06   
	BYTE	W12
	BYTE		        Ds2 
	BYTE	W12
	BYTE		N06   
	BYTE	W06
	BYTE		N06   
	BYTE	W06
	BYTE		N06   
	BYTE	W06
	BYTE		N06   
	BYTE	W06
	BYTE		N06   
	BYTE	W06
	BYTE	PEND
// 028   ----------------------------------------
	BYTE	PATT
	 POIN2	sans_2_024
// 029   ----------------------------------------
	BYTE	PATT
	 POIN2	sans_2_005
// 030   ----------------------------------------
	BYTE	PATT
	 POIN2	sans_2_012
// 031   ----------------------------------------
	BYTE	PATT
	 POIN2	sans_2_027
// 032   ----------------------------------------
	BYTE	PATT
	 POIN2	sans_2_024
// 033   ----------------------------------------
	BYTE	PATT
	 POIN2	sans_2_005
// 034   ----------------------------------------
	BYTE	PATT
	 POIN2	sans_2_012
// 035   ----------------------------------------
	BYTE	PATT
	 POIN2	sans_2_027
// 036   ----------------------------------------
	BYTE	PATT
	 POIN2	sans_2_024
// 037   ----------------------------------------
	BYTE	PATT
	 POIN2	sans_2_005
// 038   ----------------------------------------
	BYTE	PATT
	 POIN2	sans_2_012
// 039   ----------------------------------------
	BYTE	PATT
	 POIN2	sans_2_027
// 040   ----------------------------------------
	BYTE	PATT
	 POIN2	sans_2_024
// 041   ----------------------------------------
	BYTE	PATT
	 POIN2	sans_2_005
// 042   ----------------------------------------
	BYTE	PATT
	 POIN2	sans_2_006
// 043   ----------------------------------------
	BYTE	PATT
	 POIN2	sans_2_006
// 044   ----------------------------------------
	BYTE	PATT
	 POIN2	sans_2_024
// 045   ----------------------------------------
	BYTE	PATT
	 POIN2	sans_2_005
// 046   ----------------------------------------
	BYTE	PATT
	 POIN2	sans_2_012
// 047   ----------------------------------------
	BYTE	PATT
	 POIN2	sans_2_012
// 048   ----------------------------------------
	BYTE	PATT
	 POIN2	sans_2_024
// 049   ----------------------------------------
	BYTE	PATT
	 POIN2	sans_2_005
// 050   ----------------------------------------
	BYTE	PATT
	 POIN2	sans_2_006
// 051   ----------------------------------------
	BYTE	PATT
	 POIN2	sans_2_006
// 052   ----------------------------------------
	BYTE	PATT
	 POIN2	sans_2_024
// 053   ----------------------------------------
	BYTE	PATT
	 POIN2	sans_2_005
// 054   ----------------------------------------
	BYTE	PATT
	 POIN2	sans_2_012
// 055   ----------------------------------------
	BYTE		N06     Dn2   v100
	BYTE	W12
	BYTE		N06   
	BYTE	W12
	BYTE		N06   
	BYTE	W06
	BYTE		N06   
	BYTE	W12
	BYTE		N06   
	BYTE	W12
	BYTE		N06   
	BYTE	W12
	BYTE		N06   
	BYTE	W06
	BYTE		N06   
	BYTE	W06
	BYTE		N06   
	BYTE	W06
	BYTE		N06   
	BYTE	W06
	BYTE		N06   
	BYTE	W05
	BYTE		VOL     115*sans_mvl/mxv
	BYTE	W01
// 056   ----------------------------------------
sans_2_056:
	BYTE		N06     As1   v100
	BYTE	W12
	BYTE		N06   
	BYTE	W12
	BYTE		        As0 
	BYTE	W06
	BYTE		        As1 
	BYTE	W12
	BYTE		N06   
	BYTE	W12
	BYTE		N06   
	BYTE	W12
	BYTE		N06   
	BYTE	W06
	BYTE		N06   
	BYTE	W06
	BYTE		        As0 
	BYTE	W06
	BYTE		        As1 
	BYTE	W06
	BYTE		        As2 
	BYTE	W06
	BYTE	PEND
// 057   ----------------------------------------
sans_2_057:
	BYTE		N06     Cn2   v100
	BYTE	W12
	BYTE		N06   
	BYTE	W12
	BYTE		        Cn1 
	BYTE	W06
	BYTE		        Cn2 
	BYTE	W12
	BYTE		N06   
	BYTE	W12
	BYTE		N06   
	BYTE	W12
	BYTE		N06   
	BYTE	W06
	BYTE		N06   
	BYTE	W06
	BYTE		        Cn1 
	BYTE	W06
	BYTE		        Cn2 
	BYTE	W06
	BYTE		        Cn3 
	BYTE	W06
	BYTE	PEND
// 058   ----------------------------------------
sans_2_058:
	BYTE		N06     Dn2   v100
	BYTE	W12
	BYTE		N06   
	BYTE	W12
	BYTE		        Dn1 
	BYTE	W06
	BYTE		        Dn2 
	BYTE	W12
	BYTE		        Cs2 
	BYTE	W12
	BYTE		N06   
	BYTE	W12
	BYTE		N06   
	BYTE	W06
	BYTE		N06   
	BYTE	W06
	BYTE		        Cs1 
	BYTE	W06
	BYTE		        Cs2 
	BYTE	W06
	BYTE		        Cs3 
	BYTE	W06
	BYTE	PEND
// 059   ----------------------------------------
sans_2_059:
	BYTE		N06     Cn2   v100
	BYTE	W12
	BYTE		N06   
	BYTE	W12
	BYTE		        Cn1 
	BYTE	W06
	BYTE		        Cn2 
	BYTE	W12
	BYTE		        Bn1 
	BYTE	W12
	BYTE		N06   
	BYTE	W12
	BYTE		N06   
	BYTE	W06
	BYTE		N06   
	BYTE	W06
	BYTE		        Bn0 
	BYTE	W06
	BYTE		        Bn1 
	BYTE	W06
	BYTE		        Bn2 
	BYTE	W06
	BYTE	PEND
// 060   ----------------------------------------
	BYTE	PATT
	 POIN2	sans_2_056
// 061   ----------------------------------------
	BYTE	PATT
	 POIN2	sans_2_057
// 062   ----------------------------------------
sans_2_062:
	BYTE		N06     Dn2   v100
	BYTE	W12
	BYTE		N06   
	BYTE	W12
	BYTE		        Dn1 
	BYTE	W06
	BYTE		        Dn2 
	BYTE	W12
	BYTE		N06   
	BYTE	W12
	BYTE		N06   
	BYTE	W12
	BYTE		N06   
	BYTE	W06
	BYTE		N06   
	BYTE	W06
	BYTE		        Dn1 
	BYTE	W06
	BYTE		        Dn2 
	BYTE	W06
	BYTE		N06   
	BYTE	W06
	BYTE	PEND
// 063   ----------------------------------------
	BYTE	PATT
	 POIN2	sans_2_062
// 064   ----------------------------------------
	BYTE	PATT
	 POIN2	sans_2_056
// 065   ----------------------------------------
	BYTE	PATT
	 POIN2	sans_2_057
// 066   ----------------------------------------
	BYTE	PATT
	 POIN2	sans_2_058
// 067   ----------------------------------------
	BYTE	PATT
	 POIN2	sans_2_059
// 068   ----------------------------------------
	BYTE	PATT
	 POIN2	sans_2_056
// 069   ----------------------------------------
	BYTE	PATT
	 POIN2	sans_2_057
// 070   ----------------------------------------
	BYTE	PATT
	 POIN2	sans_2_062
// 071   ----------------------------------------
	BYTE	PATT
	 POIN2	sans_2_062
// 072   ----------------------------------------
	BYTE	W96
// 073   ----------------------------------------
	BYTE	W96
// 074   ----------------------------------------
	BYTE	W96
// 075   ----------------------------------------
	BYTE	W96
// 076   ----------------------------------------
	BYTE	W96
// 077   ----------------------------------------
	BYTE	W96
	BYTE	GoTo
	 POIN2	sans_2_B1
sans_2_B2:
// 078   ----------------------------------------
	BYTE		VOICE   29
	BYTE		BEND    c_v+0
	BYTE	FINE

//**************** Track 3 (Midi-Chn.3) ****************//

sans_3:
	BYTE	KEYSH   sans_key+0
sans_3_B1:
// 000   ----------------------------------------
	BYTE		VOICE   34
	BYTE		PAN     c_v+9
	BYTE		VOL     90*sans_mvl/mxv
	BYTE		BEND    c_v+0
	BYTE	W96
// 001   ----------------------------------------
	BYTE	W96
// 002   ----------------------------------------
	BYTE	W96
// 003   ----------------------------------------
	BYTE	W96
// 004   ----------------------------------------
	BYTE	W96
// 005   ----------------------------------------
	BYTE	W96
// 006   ----------------------------------------
	BYTE	W96
// 007   ----------------------------------------
	BYTE	W96
// 008   ----------------------------------------
sans_3_008:
	BYTE		N06     Dn1   v100
	BYTE		N96     Dn2 
	BYTE	W12
	BYTE		N06     Dn1 
	BYTE	W12
	BYTE		N06   
	BYTE	W06
	BYTE		N06   
	BYTE	W12
	BYTE		N06   
	BYTE	W12
	BYTE		N06   
	BYTE	W12
	BYTE		N06   
	BYTE	W06
	BYTE		N06   
	BYTE	W06
	BYTE		N06   
	BYTE	W06
	BYTE		N06   
	BYTE	W06
	BYTE		N06   
	BYTE	W06
	BYTE	PEND
// 009   ----------------------------------------
sans_3_009:
	BYTE		N06     Cn1   v100
	BYTE		N96     Cn2 
	BYTE	W12
	BYTE		N06     Cn1 
	BYTE	W12
	BYTE		N06   
	BYTE	W06
	BYTE		N06   
	BYTE	W12
	BYTE		N06   
	BYTE	W12
	BYTE		N06   
	BYTE	W12
	BYTE		N06   
	BYTE	W06
	BYTE		N06   
	BYTE	W06
	BYTE		N06   
	BYTE	W06
	BYTE		N06   
	BYTE	W06
	BYTE		N06   
	BYTE	W06
	BYTE	PEND
// 010   ----------------------------------------
sans_3_010:
	BYTE		N06     Bn0   v100
	BYTE		N96     Bn1 
	BYTE	W12
	BYTE		N06     Bn0 
	BYTE	W12
	BYTE		N06   
	BYTE	W06
	BYTE		N06   
	BYTE	W12
	BYTE		N06   
	BYTE	W12
	BYTE		N06   
	BYTE	W12
	BYTE		N06   
	BYTE	W06
	BYTE		N06   
	BYTE	W06
	BYTE		N06   
	BYTE	W06
	BYTE		N06   
	BYTE	W06
	BYTE		N06   
	BYTE	W06
	BYTE	PEND
// 011   ----------------------------------------
sans_3_011:
	BYTE		N06     As0   v100
	BYTE		N48     As1 
	BYTE	W12
	BYTE		N06     As0 
	BYTE	W12
	BYTE		N06   
	BYTE	W06
	BYTE		N06   
	BYTE	W12
	BYTE		N06   
	BYTE	W06
	BYTE		N48     Cn2 
	BYTE	W06
	BYTE		N06     Cn1 
	BYTE	W12
	BYTE		N06   
	BYTE	W06
	BYTE		N06   
	BYTE	W06
	BYTE		N06   
	BYTE	W06
	BYTE		N06   
	BYTE	W06
	BYTE		N06   
	BYTE	W06
	BYTE	PEND
// 012   ----------------------------------------
	BYTE	PATT
	 POIN2	sans_3_008
// 013   ----------------------------------------
	BYTE	PATT
	 POIN2	sans_3_009
// 014   ----------------------------------------
	BYTE	PATT
	 POIN2	sans_3_010
// 015   ----------------------------------------
	BYTE	PATT
	 POIN2	sans_3_011
// 016   ----------------------------------------
	BYTE	PATT
	 POIN2	sans_3_008
// 017   ----------------------------------------
	BYTE	PATT
	 POIN2	sans_3_009
// 018   ----------------------------------------
	BYTE	PATT
	 POIN2	sans_3_010
// 019   ----------------------------------------
	BYTE	PATT
	 POIN2	sans_3_011
// 020   ----------------------------------------
	BYTE	PATT
	 POIN2	sans_3_008
// 021   ----------------------------------------
	BYTE	PATT
	 POIN2	sans_3_009
// 022   ----------------------------------------
	BYTE	PATT
	 POIN2	sans_3_010
// 023   ----------------------------------------
	BYTE	PATT
	 POIN2	sans_3_011
// 024   ----------------------------------------
sans_3_024:
	BYTE		N06     As0   v100
	BYTE		N96     As1 
	BYTE	W12
	BYTE		N06     As0 
	BYTE	W12
	BYTE		N06   
	BYTE	W06
	BYTE		N06   
	BYTE	W12
	BYTE		N06   
	BYTE	W12
	BYTE		N06   
	BYTE	W12
	BYTE		N06   
	BYTE	W06
	BYTE		N06   
	BYTE	W06
	BYTE		N06   
	BYTE	W06
	BYTE		N06   
	BYTE	W06
	BYTE		N06   
	BYTE	W06
	BYTE	PEND
// 025   ----------------------------------------
	BYTE	PATT
	 POIN2	sans_3_009
// 026   ----------------------------------------
	BYTE	PATT
	 POIN2	sans_3_008
// 027   ----------------------------------------
sans_3_027:
	BYTE		N06     Cs1   v100
	BYTE		N48     Cs2 
	BYTE	W12
	BYTE		N06     Cs1 
	BYTE	W12
	BYTE		N06   
	BYTE	W06
	BYTE		N06   
	BYTE	W12
	BYTE		N06   
	BYTE	W06
	BYTE		N48     Ds2 
	BYTE	W06
	BYTE		N06     Ds1 
	BYTE	W12
	BYTE		N06   
	BYTE	W06
	BYTE		N06   
	BYTE	W06
	BYTE		N06   
	BYTE	W06
	BYTE		N06   
	BYTE	W06
	BYTE		N06   
	BYTE	W06
	BYTE	PEND
// 028   ----------------------------------------
	BYTE	PATT
	 POIN2	sans_3_024
// 029   ----------------------------------------
	BYTE	PATT
	 POIN2	sans_3_009
// 030   ----------------------------------------
	BYTE	PATT
	 POIN2	sans_3_008
// 031   ----------------------------------------
	BYTE	PATT
	 POIN2	sans_3_027
// 032   ----------------------------------------
	BYTE	PATT
	 POIN2	sans_3_024
// 033   ----------------------------------------
	BYTE	PATT
	 POIN2	sans_3_009
// 034   ----------------------------------------
	BYTE	PATT
	 POIN2	sans_3_008
// 035   ----------------------------------------
	BYTE	PATT
	 POIN2	sans_3_027
// 036   ----------------------------------------
	BYTE	PATT
	 POIN2	sans_3_024
// 037   ----------------------------------------
	BYTE	PATT
	 POIN2	sans_3_009
// 038   ----------------------------------------
	BYTE	PATT
	 POIN2	sans_3_008
// 039   ----------------------------------------
	BYTE	PATT
	 POIN2	sans_3_027
// 040   ----------------------------------------
	BYTE	PATT
	 POIN2	sans_3_024
// 041   ----------------------------------------
sans_3_041:
	BYTE		N06     Cn1   v100
	BYTE		N96     Cn2 
	BYTE	W12
	BYTE		N06     Cn1 
	BYTE	W12
	BYTE		N06   
	BYTE	W06
	BYTE		N06   
	BYTE	W12
	BYTE		N06   
	BYTE	W12
	BYTE		N06   
	BYTE	W12
	BYTE		N06   
	BYTE	W06
	BYTE		N06   
	BYTE	W06
	BYTE		N06   
	BYTE	W06
	BYTE		N06   
	BYTE	W06
	BYTE		N06   
	BYTE	W05
	BYTE		        Bn0 
	BYTE		N96     Bn1 
	BYTE	W01
	BYTE	PEND
// 042   ----------------------------------------
sans_3_042:
	BYTE	W11
	BYTE		N06     Bn0   v100
	BYTE	W12
	BYTE		N06   
	BYTE	W06
	BYTE		N06   
	BYTE	W12
	BYTE		N06   
	BYTE	W12
	BYTE		N06   
	BYTE	W12
	BYTE		N06   
	BYTE	W06
	BYTE		N06   
	BYTE	W06
	BYTE		N06   
	BYTE	W06
	BYTE		N06   
	BYTE	W06
	BYTE		N06   
	BYTE	W06
	BYTE		N06   
	BYTE		N96     Bn1 
	BYTE	W01
	BYTE	PEND
// 043   ----------------------------------------
sans_3_043:
	BYTE	W11
	BYTE		N06     Bn0   v100
	BYTE	W12
	BYTE		N06   
	BYTE	W06
	BYTE		N06   
	BYTE	W12
	BYTE		N06   
	BYTE	W12
	BYTE		N06   
	BYTE	W12
	BYTE		N06   
	BYTE	W06
	BYTE		N06   
	BYTE	W06
	BYTE		N06   
	BYTE	W06
	BYTE		N06   
	BYTE	W06
	BYTE		N06   
	BYTE	W07
	BYTE	PEND
// 044   ----------------------------------------
	BYTE	PATT
	 POIN2	sans_3_024
// 045   ----------------------------------------
	BYTE	PATT
	 POIN2	sans_3_009
// 046   ----------------------------------------
	BYTE	PATT
	 POIN2	sans_3_008
// 047   ----------------------------------------
	BYTE	PATT
	 POIN2	sans_3_008
// 048   ----------------------------------------
	BYTE	PATT
	 POIN2	sans_3_024
// 049   ----------------------------------------
	BYTE	PATT
	 POIN2	sans_3_041
// 050   ----------------------------------------
	BYTE	PATT
	 POIN2	sans_3_042
// 051   ----------------------------------------
	BYTE	PATT
	 POIN2	sans_3_043
// 052   ----------------------------------------
	BYTE	PATT
	 POIN2	sans_3_024
// 053   ----------------------------------------
	BYTE	PATT
	 POIN2	sans_3_009
// 054   ----------------------------------------
	BYTE	PATT
	 POIN2	sans_3_008
// 055   ----------------------------------------
	BYTE	PATT
	 POIN2	sans_3_008
// 056   ----------------------------------------
	BYTE	W96
// 057   ----------------------------------------
	BYTE	W96
// 058   ----------------------------------------
	BYTE	W96
// 059   ----------------------------------------
	BYTE	W96
// 060   ----------------------------------------
	BYTE	W96
// 061   ----------------------------------------
	BYTE	W96
// 062   ----------------------------------------
	BYTE	W96
// 063   ----------------------------------------
	BYTE	W96
// 064   ----------------------------------------
	BYTE	W96
// 065   ----------------------------------------
	BYTE	W96
// 066   ----------------------------------------
	BYTE	W96
// 067   ----------------------------------------
	BYTE	W96
// 068   ----------------------------------------
	BYTE	W96
// 069   ----------------------------------------
	BYTE	W96
// 070   ----------------------------------------
	BYTE	W96
// 071   ----------------------------------------
	BYTE	W96
// 072   ----------------------------------------
	BYTE	W96
// 073   ----------------------------------------
	BYTE	W96
// 074   ----------------------------------------
	BYTE	W96
// 075   ----------------------------------------
	BYTE	W96
// 076   ----------------------------------------
	BYTE	W96
// 077   ----------------------------------------
	BYTE	W96
	BYTE	GoTo
	 POIN2	sans_3_B1
sans_3_B2:
// 078   ----------------------------------------
	BYTE		BEND    c_v+0
	BYTE	FINE

//**************** Track 4 (Midi-Chn.4) ****************//

sans_4:
	BYTE	KEYSH   sans_key+0
sans_4_B1:
// 000   ----------------------------------------
	BYTE		VOICE   48
	BYTE		PAN     c_v-9
	BYTE		VOL     98*sans_mvl/mxv
	BYTE		BEND    c_v+0
	BYTE	W96
// 001   ----------------------------------------
	BYTE	W96
// 002   ----------------------------------------
	BYTE	W96
// 003   ----------------------------------------
	BYTE	W96
// 004   ----------------------------------------
	BYTE	W96
// 005   ----------------------------------------
	BYTE	W96
// 006   ----------------------------------------
	BYTE	W96
// 007   ----------------------------------------
	BYTE	W96
// 008   ----------------------------------------
sans_4_008:
	BYTE		N06     Dn4   v100
	BYTE	W06
	BYTE		N06   
	BYTE	W06
	BYTE		        Dn5 
	BYTE	W12
	BYTE		        An4 
	BYTE	W18
	BYTE		        Gs4 
	BYTE	W12
	BYTE		        Gn4 
	BYTE	W12
	BYTE		N12     Fn4 
	BYTE	W12
	BYTE		N06     Dn4 
	BYTE	W06
	BYTE		        Fn4 
	BYTE	W06
	BYTE		        Gn4 
	BYTE	W06
	BYTE	PEND
// 009   ----------------------------------------
sans_4_009:
	BYTE		N06     Cn4   v100
	BYTE	W06
	BYTE		N06   
	BYTE	W06
	BYTE		        Dn5 
	BYTE	W12
	BYTE		        An4 
	BYTE	W18
	BYTE		        Gs4 
	BYTE	W12
	BYTE		        Gn4 
	BYTE	W12
	BYTE		N12     Fn4 
	BYTE	W12
	BYTE		N06     Dn4 
	BYTE	W06
	BYTE		        Fn4 
	BYTE	W06
	BYTE		        Gn4 
	BYTE	W06
	BYTE	PEND
// 010   ----------------------------------------
sans_4_010:
	BYTE		N06     Bn3   v100
	BYTE	W06
	BYTE		N06   
	BYTE	W06
	BYTE		        Dn5 
	BYTE	W12
	BYTE		        An4 
	BYTE	W18
	BYTE		        Gs4 
	BYTE	W12
	BYTE		        Gn4 
	BYTE	W12
	BYTE		N12     Fn4 
	BYTE	W12
	BYTE		N06     Dn4 
	BYTE	W06
	BYTE		        Fn4 
	BYTE	W06
	BYTE		        Gn4 
	BYTE	W06
	BYTE	PEND
// 011   ----------------------------------------
sans_4_011:
	BYTE		N06     As3   v100
	BYTE	W06
	BYTE		N06   
	BYTE	W06
	BYTE		        Dn5 
	BYTE	W12
	BYTE		        An4 
	BYTE	W18
	BYTE		        Gs4 
	BYTE	W12
	BYTE		        Gn4 
	BYTE	W12
	BYTE		N12     Fn4 
	BYTE	W12
	BYTE		N06     Dn4 
	BYTE	W06
	BYTE		        Fn4 
	BYTE	W06
	BYTE		        Gn4 
	BYTE	W06
	BYTE	PEND
// 012   ----------------------------------------
	BYTE	PATT
	 POIN2	sans_4_008
// 013   ----------------------------------------
	BYTE	PATT
	 POIN2	sans_4_009
// 014   ----------------------------------------
	BYTE	PATT
	 POIN2	sans_4_010
// 015   ----------------------------------------
	BYTE	PATT
	 POIN2	sans_4_011
// 016   ----------------------------------------
	BYTE	W96
// 017   ----------------------------------------
	BYTE	W96
// 018   ----------------------------------------
	BYTE	W96
// 019   ----------------------------------------
	BYTE	W96
// 020   ----------------------------------------
	BYTE	W96
// 021   ----------------------------------------
	BYTE	W96
// 022   ----------------------------------------
	BYTE	W96
// 023   ----------------------------------------
	BYTE	W96
// 024   ----------------------------------------
sans_4_024:
	BYTE	W48
	BYTE		N02     Fn4   v100
	BYTE	W06
	BYTE		        Dn4 
	BYTE	W06
	BYTE		        Fn4 
	BYTE	W06
	BYTE		        Gn4 
	BYTE	W06
	BYTE		        Gs4 
	BYTE	W06
	BYTE		        Gn4 
	BYTE	W06
	BYTE		        Fn4 
	BYTE	W06
	BYTE		        Dn4 
	BYTE	W06
	BYTE	PEND
// 025   ----------------------------------------
sans_4_025:
	BYTE		N01     Gs4   v100
	BYTE	W03
	BYTE		        Gn4 
	BYTE	W03
	BYTE		        Fn4 
	BYTE	W03
	BYTE		        Dn4 
	BYTE	W03
	BYTE		N06     Fn4 
	BYTE	W12
	BYTE		N56     Gn4 
	BYTE	W56
	BYTE	W01
	BYTE		N06     Gs4 
	BYTE	W09
	BYTE		N03     An4 
	BYTE	W06
	BYTE	PEND
// 026   ----------------------------------------
sans_4_026:
	BYTE		N06     Cn5   v100
	BYTE	W12
	BYTE		N03     An4 
	BYTE	W06
	BYTE		        Gs4 
	BYTE	W06
	BYTE		        Gn4 
	BYTE	W06
	BYTE		        Fn4 
	BYTE	W06
	BYTE		        Dn4 
	BYTE	W06
	BYTE		N06     En4 
	BYTE	W06
	BYTE		        Fn4 
	BYTE	W12
	BYTE		        Gn4 
	BYTE	W12
	BYTE		        An4 
	BYTE	W12
	BYTE		        Cn5 
	BYTE	W12
	BYTE	PEND
// 027   ----------------------------------------
sans_4_027:
	BYTE		N12     Cs5   v100
	BYTE	W12
	BYTE		N06     Gs4 
	BYTE	W12
	BYTE		N06   
	BYTE	W06
	BYTE		        Gn4 
	BYTE	W06
	BYTE		        Fn4 
	BYTE	W06
	BYTE		N54     Gn4 
	BYTE	W54
	BYTE	PEND
// 028   ----------------------------------------
sans_4_028:
	BYTE		N06     Fn3   v100
	BYTE	W12
	BYTE		        Gn3 
	BYTE	W12
	BYTE		        An3 
	BYTE	W12
	BYTE		        Fn4 
	BYTE	W12
	BYTE		N24     En4 
	BYTE	W24
	BYTE		        Dn4 
	BYTE	W24
	BYTE	PEND
// 029   ----------------------------------------
sans_4_029:
	BYTE		N24     En4   v100
	BYTE	W24
	BYTE		        Fn4 
	BYTE	W24
	BYTE		        Gn4 
	BYTE	W24
	BYTE		        En4 
	BYTE	W24
	BYTE	PEND
// 030   ----------------------------------------
	BYTE		N42     An4 
	BYTE	W96
// 031   ----------------------------------------
	BYTE		        Cs4 
	BYTE	W06
	BYTE		BEND    c_v+0
	BYTE	W01
	BYTE		        c_v+0
	BYTE	W01
	BYTE		        c_v+0
	BYTE	W01
	BYTE		        c_v+0
	BYTE	W01
	BYTE		        c_v+0
	BYTE	W01
	BYTE		        c_v+0
	BYTE	W01
	BYTE		        c_v+0
	BYTE	W01
	BYTE		        c_v+0
	BYTE	W01
	BYTE		        c_v+1
	BYTE	W01
	BYTE		        c_v+1
	BYTE	W01
	BYTE		        c_v+1
	BYTE	W01
	BYTE		        c_v+1
	BYTE	W01
	BYTE		        c_v+1
	BYTE	W01
	BYTE		        c_v+1
	BYTE	W01
	BYTE		        c_v+1
	BYTE	W01
	BYTE		        c_v+1
	BYTE	W01
	BYTE		        c_v+2
	BYTE	W01
	BYTE		        c_v+2
	BYTE	W01
	BYTE		        c_v+2
	BYTE	W01
	BYTE		        c_v+2
	BYTE	W01
	BYTE		        c_v+2
	BYTE	W01
	BYTE		        c_v+2
	BYTE	W01
	BYTE		        c_v+2
	BYTE	W01
	BYTE		        c_v+2
	BYTE	W01
	BYTE		        c_v+3
	BYTE	W01
	BYTE		        c_v+3
	BYTE	W01
	BYTE		        c_v+3
	BYTE	W01
	BYTE		        c_v+3
	BYTE	W01
	BYTE		        c_v+3
	BYTE	W01
	BYTE		        c_v+3
	BYTE	W01
	BYTE		        c_v+3
	BYTE	W01
	BYTE		        c_v+4
	BYTE	W01
	BYTE		        c_v+4
	BYTE	W01
	BYTE		        c_v+4
	BYTE	W01
	BYTE		        c_v+4
	BYTE	W01
	BYTE		        c_v+0
	BYTE	W07
	BYTE		N48     Ds4 
	BYTE	W48
// 032   ----------------------------------------
	BYTE	PATT
	 POIN2	sans_4_024
// 033   ----------------------------------------
	BYTE	PATT
	 POIN2	sans_4_025
// 034   ----------------------------------------
	BYTE	PATT
	 POIN2	sans_4_026
// 035   ----------------------------------------
	BYTE	PATT
	 POIN2	sans_4_027
// 036   ----------------------------------------
	BYTE	PATT
	 POIN2	sans_4_028
// 037   ----------------------------------------
	BYTE	PATT
	 POIN2	sans_4_029
// 038   ----------------------------------------
	BYTE		N42     An4   v100
	BYTE	W96
// 039   ----------------------------------------
	BYTE		        Cs4 
	BYTE	W07
	BYTE		BEND    c_v+0
	BYTE	W01
	BYTE		        c_v+0
	BYTE	W01
	BYTE		        c_v+0
	BYTE	W01
	BYTE		        c_v+0
	BYTE	W01
	BYTE		        c_v+0
	BYTE	W01
	BYTE		        c_v+0
	BYTE	W01
	BYTE		        c_v+0
	BYTE	W01
	BYTE		        c_v+0
	BYTE	W01
	BYTE		        c_v+1
	BYTE	W01
	BYTE		        c_v+1
	BYTE	W01
	BYTE		        c_v+1
	BYTE	W01
	BYTE		        c_v+1
	BYTE	W01
	BYTE		        c_v+1
	BYTE	W01
	BYTE		        c_v+1
	BYTE	W01
	BYTE		        c_v+1
	BYTE	W01
	BYTE		        c_v+2
	BYTE	W01
	BYTE		        c_v+2
	BYTE	W01
	BYTE		        c_v+2
	BYTE	W01
	BYTE		        c_v+2
	BYTE	W01
	BYTE		        c_v+2
	BYTE	W01
	BYTE		        c_v+2
	BYTE	W01
	BYTE		        c_v+2
	BYTE	W01
	BYTE		        c_v+2
	BYTE	W01
	BYTE		        c_v+3
	BYTE	W01
	BYTE		        c_v+3
	BYTE	W01
	BYTE		        c_v+3
	BYTE	W01
	BYTE		        c_v+3
	BYTE	W01
	BYTE		        c_v+3
	BYTE	W01
	BYTE		        c_v+3
	BYTE	W01
	BYTE		        c_v+3
	BYTE	W01
	BYTE		        c_v+3
	BYTE	W01
	BYTE		        c_v+4
	BYTE	W01
	BYTE		        c_v+4
	BYTE	W01
	BYTE		        c_v+4
	BYTE	W01
	BYTE		        c_v+4
	BYTE	W01
	BYTE		        c_v+0
	BYTE	W06
	BYTE		N48     Ds4 
	BYTE	W48
// 040   ----------------------------------------
	BYTE	W96
// 041   ----------------------------------------
	BYTE	W96
// 042   ----------------------------------------
	BYTE	W96
// 043   ----------------------------------------
	BYTE	W96
// 044   ----------------------------------------
	BYTE	W96
// 045   ----------------------------------------
	BYTE	W96
// 046   ----------------------------------------
	BYTE	W96
// 047   ----------------------------------------
	BYTE	W96
// 048   ----------------------------------------
	BYTE	W96
// 049   ----------------------------------------
	BYTE	W96
// 050   ----------------------------------------
	BYTE	W96
// 051   ----------------------------------------
	BYTE	W96
// 052   ----------------------------------------
	BYTE	W96
// 053   ----------------------------------------
	BYTE	W96
// 054   ----------------------------------------
	BYTE		VOL     63*sans_mvl/mxv
	BYTE	W12
	BYTE		N06     Fn3 
	BYTE		N06     Fn4 
	BYTE		N06     Fn5 
	BYTE	W12
	BYTE		        En3 
	BYTE		N06     En4 
	BYTE		N06     En5 
	BYTE	W18
	BYTE		        Cn3 
	BYTE		N06     Cn4 
	BYTE		N06     Cn5 
	BYTE	W12
	BYTE		        En3 
	BYTE		N06     En4 
	BYTE		N06     En5 
	BYTE	W11
	BYTE		        Dn3 
	BYTE		N06     Dn4 
	BYTE		N06     Dn5 
	BYTE	W13
	BYTE		        An2 
	BYTE		N06     An3 
	BYTE		N06     An4 
	BYTE	W06
	BYTE		        Cn3 
	BYTE		N06     Cn4 
	BYTE		N06     Cn5 
	BYTE	W06
	BYTE		        Dn3 
	BYTE		N06     Dn4 
	BYTE		N06     Dn5 
	BYTE	W06
// 055   ----------------------------------------
	BYTE	W12
	BYTE		        Fn3 
	BYTE		N06     Fn4 
	BYTE		N06     Fn5 
	BYTE	W12
	BYTE		        En3 
	BYTE		N06     En4 
	BYTE		N06     En5 
	BYTE	W18
	BYTE		        Cn3 
	BYTE		N06     Cn4 
	BYTE		N06     Cn5 
	BYTE	W12
	BYTE		        En3 
	BYTE		N06     En4 
	BYTE		N06     En5 
	BYTE	W11
	BYTE		        Dn3 
	BYTE		N06     Dn4 
	BYTE		N06     Dn5 
	BYTE	W13
	BYTE		        An2 
	BYTE		N06     An3 
	BYTE		N06     An4 
	BYTE	W06
	BYTE		        Cn3 
	BYTE		N06     Cn4 
	BYTE		N06     Cn5 
	BYTE	W06
	BYTE		        Dn3 
	BYTE		N06     Dn4 
	BYTE		N06     Dn5 
	BYTE	W06
// 056   ----------------------------------------
	BYTE		VOL     98*sans_mvl/mxv
	BYTE	W96
// 057   ----------------------------------------
	BYTE	W96
// 058   ----------------------------------------
	BYTE	W96
// 059   ----------------------------------------
	BYTE	W96
// 060   ----------------------------------------
	BYTE	W96
// 061   ----------------------------------------
	BYTE	W96
// 062   ----------------------------------------
	BYTE	W96
// 063   ----------------------------------------
	BYTE	W96
// 064   ----------------------------------------
	BYTE	W96
// 065   ----------------------------------------
	BYTE	W96
// 066   ----------------------------------------
	BYTE	W96
// 067   ----------------------------------------
	BYTE	W96
// 068   ----------------------------------------
	BYTE	W96
// 069   ----------------------------------------
	BYTE	W96
// 070   ----------------------------------------
	BYTE	W96
// 071   ----------------------------------------
	BYTE	W96
// 072   ----------------------------------------
	BYTE	W96
// 073   ----------------------------------------
	BYTE	W96
// 074   ----------------------------------------
	BYTE	W96
// 075   ----------------------------------------
	BYTE	W96
// 076   ----------------------------------------
	BYTE	W96
// 077   ----------------------------------------
	BYTE	W96
	BYTE	GoTo
	 POIN2	sans_4_B1
sans_4_B2:
// 078   ----------------------------------------
	BYTE		VOICE   48
	BYTE		BEND    c_v+0
	BYTE	FINE

//**************** Track 5 (Midi-Chn.5) ****************//

sans_5:
	BYTE	KEYSH   sans_key+0
sans_5_B1:
// 000   ----------------------------------------
	BYTE		VOICE   61
	BYTE		PAN     c_v+10
	BYTE		VOL     99*sans_mvl/mxv
	BYTE		BEND    c_v+0
	BYTE	W96
// 001   ----------------------------------------
	BYTE	W96
// 002   ----------------------------------------
	BYTE	W96
// 003   ----------------------------------------
	BYTE	W96
// 004   ----------------------------------------
	BYTE	W96
// 005   ----------------------------------------
	BYTE	W96
// 006   ----------------------------------------
	BYTE	W96
// 007   ----------------------------------------
	BYTE	W96
// 008   ----------------------------------------
sans_5_008:
	BYTE		N06     Dn2   v100
	BYTE		N06     Dn3 
	BYTE	W06
	BYTE		        Dn2 
	BYTE		N06     Dn3 
	BYTE	W06
	BYTE		N06   
	BYTE		N06     Dn4 
	BYTE	W12
	BYTE		        An2 
	BYTE		N06     An3 
	BYTE	W18
	BYTE		        Gs2 
	BYTE		N06     Gs3 
	BYTE	W12
	BYTE		        Gn2 
	BYTE		N06     Gn3 
	BYTE	W12
	BYTE		N12     Fn2 
	BYTE		N12     Fn3 
	BYTE	W12
	BYTE		N06     Dn2 
	BYTE		N06     Dn3 
	BYTE	W06
	BYTE		        Fn2 
	BYTE		N06     Fn3 
	BYTE	W06
	BYTE		        Gn2 
	BYTE		N06     Gn3 
	BYTE	W06
	BYTE	PEND
// 009   ----------------------------------------
sans_5_009:
	BYTE		N06     Cn2   v100
	BYTE		N06     Cn3 
	BYTE	W06
	BYTE		        Cn2 
	BYTE		N06     Cn3 
	BYTE	W06
	BYTE		        Dn3 
	BYTE		N06     Dn4 
	BYTE	W12
	BYTE		        An2 
	BYTE		N06     An3 
	BYTE	W18
	BYTE		        Gs2 
	BYTE		N06     Gs3 
	BYTE	W12
	BYTE		        Gn2 
	BYTE		N06     Gn3 
	BYTE	W12
	BYTE		N12     Fn2 
	BYTE		N12     Fn3 
	BYTE	W12
	BYTE		N06     Dn2 
	BYTE		N06     Dn3 
	BYTE	W06
	BYTE		        Fn2 
	BYTE		N06     Fn3 
	BYTE	W06
	BYTE		        Gn2 
	BYTE		N06     Gn3 
	BYTE	W06
	BYTE	PEND
// 010   ----------------------------------------
sans_5_010:
	BYTE		N06     Bn1   v100
	BYTE		N06     Bn2 
	BYTE	W06
	BYTE		        Bn1 
	BYTE		N06     Bn2 
	BYTE	W06
	BYTE		        Dn3 
	BYTE		N06     Dn4 
	BYTE	W12
	BYTE		        An2 
	BYTE		N06     An3 
	BYTE	W18
	BYTE		        Gs2 
	BYTE		N06     Gs3 
	BYTE	W12
	BYTE		        Gn2 
	BYTE		N06     Gn3 
	BYTE	W12
	BYTE		N12     Fn2 
	BYTE		N12     Fn3 
	BYTE	W12
	BYTE		N06     Dn2 
	BYTE		N06     Dn3 
	BYTE	W06
	BYTE		        Fn2 
	BYTE		N06     Fn3 
	BYTE	W06
	BYTE		        Gn2 
	BYTE		N06     Gn3 
	BYTE	W06
	BYTE	PEND
// 011   ----------------------------------------
sans_5_011:
	BYTE		N06     As1   v100
	BYTE		N06     As2 
	BYTE	W06
	BYTE		        As1 
	BYTE		N06     As2 
	BYTE	W06
	BYTE		        Dn3 
	BYTE		N06     Dn4 
	BYTE	W12
	BYTE		        An2 
	BYTE		N06     An3 
	BYTE	W18
	BYTE		        Gs2 
	BYTE		N06     Gs3 
	BYTE	W12
	BYTE		        Gn2 
	BYTE		N06     Gn3 
	BYTE	W12
	BYTE		N12     Fn2 
	BYTE		N12     Fn3 
	BYTE	W12
	BYTE		N06     Dn2 
	BYTE		N06     Dn3 
	BYTE	W06
	BYTE		        Fn2 
	BYTE		N06     Fn3 
	BYTE	W06
	BYTE		        Gn2 
	BYTE		N06     Gn3 
	BYTE	W06
	BYTE	PEND
// 012   ----------------------------------------
	BYTE	PATT
	 POIN2	sans_5_008
// 013   ----------------------------------------
	BYTE	PATT
	 POIN2	sans_5_009
// 014   ----------------------------------------
	BYTE	PATT
	 POIN2	sans_5_010
// 015   ----------------------------------------
	BYTE	PATT
	 POIN2	sans_5_011
// 016   ----------------------------------------
	BYTE	W96
// 017   ----------------------------------------
	BYTE	W96
// 018   ----------------------------------------
	BYTE	W96
// 019   ----------------------------------------
	BYTE	W96
// 020   ----------------------------------------
	BYTE	W96
// 021   ----------------------------------------
	BYTE	W96
// 022   ----------------------------------------
	BYTE	W96
// 023   ----------------------------------------
	BYTE	W96
// 024   ----------------------------------------
sans_5_024:
	BYTE	W48
	BYTE		N02     Fn2   v100
	BYTE		N02     Fn3 
	BYTE	W06
	BYTE		        Dn2 
	BYTE		N02     Dn3 
	BYTE	W06
	BYTE		        Fn2 
	BYTE		N02     Fn3 
	BYTE	W06
	BYTE		        Gn2 
	BYTE		N02     Gn3 
	BYTE	W06
	BYTE		        Gs2 
	BYTE		N02     Gs3 
	BYTE	W06
	BYTE		        Gn2 
	BYTE		N02     Gn3 
	BYTE	W06
	BYTE		        Fn2 
	BYTE		N02     Fn3 
	BYTE	W06
	BYTE		        Dn2 
	BYTE		N02     Dn3 
	BYTE	W06
	BYTE	PEND
// 025   ----------------------------------------
sans_5_025:
	BYTE		N01     Gs2   v100
	BYTE		N01     Gs3 
	BYTE	W03
	BYTE		        Gn2 
	BYTE		N01     Gn3 
	BYTE	W03
	BYTE		        Fn2 
	BYTE		N01     Fn3 
	BYTE	W03
	BYTE		        Dn2 
	BYTE		N01     Dn3 
	BYTE	W03
	BYTE		N06     Fn2 
	BYTE		N06     Fn3 
	BYTE	W12
	BYTE		N56     Gn2 
	BYTE		N56     Gn3 
	BYTE	W56
	BYTE	W01
	BYTE		N06     Gs2 
	BYTE		N06     Gs3 
	BYTE	W09
	BYTE		N03     An2 
	BYTE		N03     An3 
	BYTE	W06
	BYTE	PEND
// 026   ----------------------------------------
sans_5_026:
	BYTE		N06     Cn3   v100
	BYTE		N06     Cn4 
	BYTE	W12
	BYTE		N03     An2 
	BYTE		N03     An3 
	BYTE	W06
	BYTE		        Gs2 
	BYTE		N03     Gs3 
	BYTE	W06
	BYTE		        Gn2 
	BYTE		N03     Gn3 
	BYTE	W06
	BYTE		        Fn2 
	BYTE		N03     Fn3 
	BYTE	W06
	BYTE		        Dn2 
	BYTE		N03     Dn3 
	BYTE	W06
	BYTE		N06     En2 
	BYTE		N06     En3 
	BYTE	W06
	BYTE		        Fn2 
	BYTE		N06     Fn3 
	BYTE	W12
	BYTE		        Gn2 
	BYTE		N06     Gn3 
	BYTE	W12
	BYTE		        An2 
	BYTE		N06     An3 
	BYTE	W12
	BYTE		        Cn3 
	BYTE		N06     Cn4 
	BYTE	W12
	BYTE	PEND
// 027   ----------------------------------------
	BYTE		N12     Cs3 
	BYTE		N12     Cs4 
	BYTE	W12
	BYTE		N06     Gs2 
	BYTE		N06     Gs3 
	BYTE	W12
	BYTE		        Gs2 
	BYTE		N06     Gs3 
	BYTE	W06
	BYTE		        Gn2 
	BYTE		N06     Gn3 
	BYTE	W06
	BYTE		        Fn2 
	BYTE		N06     Fn3 
	BYTE	W06
	BYTE		N54     Gn2 
	BYTE		N54     Gn3 
	BYTE	W42
	BYTE	W01
	BYTE		BEND    c_v-5
	BYTE	W01
	BYTE		        c_v-10
	BYTE	W01
	BYTE		        c_v-16
	BYTE	W01
	BYTE		        c_v-22
	BYTE	W01
	BYTE		        c_v-28
	BYTE	W01
	BYTE		        c_v-33
	BYTE	W01
	BYTE		        c_v-39
	BYTE	W01
	BYTE		        c_v-45
	BYTE	W01
	BYTE		        c_v-50
	BYTE	W01
	BYTE		        c_v-56
	BYTE	W01
	BYTE		        c_v-62
	BYTE	W01
// 028   ----------------------------------------
sans_5_028:
	BYTE		BEND    c_v+0
	BYTE		N06     Fn1   v100
	BYTE		N06     Fn2 
	BYTE	W12
	BYTE		        Gn1 
	BYTE		N06     Gn2 
	BYTE	W12
	BYTE		        An1 
	BYTE		N06     An2 
	BYTE	W12
	BYTE		        Fn2 
	BYTE		N06     Fn3 
	BYTE	W12
	BYTE		N24     En2 
	BYTE		N24     En3 
	BYTE	W24
	BYTE		        Dn2 
	BYTE		N24     Dn3 
	BYTE	W24
	BYTE	PEND
// 029   ----------------------------------------
sans_5_029:
	BYTE		N24     En2   v100
	BYTE		N24     En3 
	BYTE	W24
	BYTE		        Fn2 
	BYTE		N24     Fn3 
	BYTE	W24
	BYTE		        Gn2 
	BYTE		N24     Gn3 
	BYTE	W24
	BYTE		        En2 
	BYTE		N24     En3 
	BYTE	W24
	BYTE	PEND
// 030   ----------------------------------------
	BYTE		N42     An2 
	BYTE		N42     An3 
	BYTE	W96
// 031   ----------------------------------------
	BYTE		        Cs2 
	BYTE		N42     Cs3 
	BYTE	W06
	BYTE		BEND    c_v+0
	BYTE	W01
	BYTE		        c_v+0
	BYTE	W01
	BYTE		        c_v+0
	BYTE	W01
	BYTE		        c_v+0
	BYTE	W01
	BYTE		        c_v+0
	BYTE	W01
	BYTE		        c_v+0
	BYTE	W01
	BYTE		        c_v+0
	BYTE	W01
	BYTE		        c_v+1
	BYTE	W01
	BYTE		        c_v+1
	BYTE	W01
	BYTE		        c_v+1
	BYTE	W01
	BYTE		        c_v+1
	BYTE	W01
	BYTE		        c_v+1
	BYTE	W01
	BYTE		        c_v+1
	BYTE	W01
	BYTE		        c_v+1
	BYTE	W01
	BYTE		        c_v+1
	BYTE	W01
	BYTE		        c_v+2
	BYTE	W01
	BYTE		        c_v+2
	BYTE	W01
	BYTE		        c_v+2
	BYTE	W01
	BYTE		        c_v+2
	BYTE	W01
	BYTE		        c_v+2
	BYTE	W01
	BYTE		        c_v+2
	BYTE	W01
	BYTE		        c_v+2
	BYTE	W01
	BYTE		        c_v+2
	BYTE	W01
	BYTE		        c_v+3
	BYTE	W01
	BYTE		        c_v+3
	BYTE	W01
	BYTE		        c_v+3
	BYTE	W01
	BYTE		        c_v+3
	BYTE	W01
	BYTE		        c_v+3
	BYTE	W01
	BYTE		        c_v+3
	BYTE	W01
	BYTE		        c_v+3
	BYTE	W01
	BYTE		        c_v+3
	BYTE	W01
	BYTE		        c_v+4
	BYTE	W01
	BYTE		        c_v+4
	BYTE	W01
	BYTE		        c_v+4
	BYTE	W01
	BYTE		        c_v+4
	BYTE	W01
	BYTE		        c_v+4
	BYTE	W01
	BYTE		        c_v+0
	BYTE	W06
	BYTE		N48     Ds2 
	BYTE		N48     Ds3 
	BYTE	W48
// 032   ----------------------------------------
	BYTE	PATT
	 POIN2	sans_5_024
// 033   ----------------------------------------
	BYTE	PATT
	 POIN2	sans_5_025
// 034   ----------------------------------------
	BYTE	PATT
	 POIN2	sans_5_026
// 035   ----------------------------------------
	BYTE		N12     Cs3   v100
	BYTE		N12     Cs4 
	BYTE	W12
	BYTE		N06     Gs2 
	BYTE		N06     Gs3 
	BYTE	W12
	BYTE		        Gs2 
	BYTE		N06     Gs3 
	BYTE	W06
	BYTE		        Gn2 
	BYTE		N06     Gn3 
	BYTE	W06
	BYTE		        Fn2 
	BYTE		N06     Fn3 
	BYTE	W06
	BYTE		N54     Gn2 
	BYTE		N54     Gn3 
	BYTE	W42
	BYTE		BEND    c_v-2
	BYTE	W01
	BYTE		        c_v-8
	BYTE	W01
	BYTE		        c_v-13
	BYTE	W01
	BYTE		        c_v-19
	BYTE	W01
	BYTE		        c_v-25
	BYTE	W01
	BYTE		        c_v-30
	BYTE	W01
	BYTE		        c_v-36
	BYTE	W01
	BYTE		        c_v-42
	BYTE	W01
	BYTE		        c_v-47
	BYTE	W01
	BYTE		        c_v-53
	BYTE	W01
	BYTE		        c_v-59
	BYTE	W01
	BYTE		        c_v-64
	BYTE	W01
// 036   ----------------------------------------
	BYTE	PATT
	 POIN2	sans_5_028
// 037   ----------------------------------------
	BYTE	PATT
	 POIN2	sans_5_029
// 038   ----------------------------------------
	BYTE		N42     An2   v100
	BYTE		N42     An3 
	BYTE	W96
// 039   ----------------------------------------
	BYTE		        Cs2 
	BYTE		N42     Cs3 
	BYTE	W06
	BYTE		BEND    c_v+0
	BYTE	W01
	BYTE		        c_v+0
	BYTE	W01
	BYTE		        c_v+0
	BYTE	W01
	BYTE		        c_v+0
	BYTE	W01
	BYTE		        c_v+0
	BYTE	W01
	BYTE		        c_v+0
	BYTE	W01
	BYTE		        c_v+0
	BYTE	W01
	BYTE		        c_v+0
	BYTE	W01
	BYTE		        c_v+1
	BYTE	W01
	BYTE		        c_v+1
	BYTE	W01
	BYTE		        c_v+1
	BYTE	W01
	BYTE		        c_v+1
	BYTE	W01
	BYTE		        c_v+1
	BYTE	W01
	BYTE		        c_v+1
	BYTE	W01
	BYTE		        c_v+1
	BYTE	W01
	BYTE		        c_v+1
	BYTE	W01
	BYTE		        c_v+2
	BYTE	W01
	BYTE		        c_v+2
	BYTE	W01
	BYTE		        c_v+2
	BYTE	W01
	BYTE		        c_v+2
	BYTE	W01
	BYTE		        c_v+2
	BYTE	W01
	BYTE		        c_v+2
	BYTE	W01
	BYTE		        c_v+2
	BYTE	W01
	BYTE		        c_v+2
	BYTE	W01
	BYTE		        c_v+3
	BYTE	W01
	BYTE		        c_v+3
	BYTE	W01
	BYTE		        c_v+3
	BYTE	W01
	BYTE		        c_v+3
	BYTE	W01
	BYTE		        c_v+3
	BYTE	W01
	BYTE		        c_v+3
	BYTE	W01
	BYTE		        c_v+3
	BYTE	W01
	BYTE		        c_v+4
	BYTE	W01
	BYTE		        c_v+4
	BYTE	W01
	BYTE		        c_v+4
	BYTE	W01
	BYTE		        c_v+4
	BYTE	W01
	BYTE		        c_v+4
	BYTE	W01
	BYTE		        c_v+0
	BYTE	W06
	BYTE		N48     Ds2 
	BYTE		N48     Ds3 
	BYTE	W48
// 040   ----------------------------------------
	BYTE	W96
// 041   ----------------------------------------
	BYTE	W96
// 042   ----------------------------------------
	BYTE	W96
// 043   ----------------------------------------
	BYTE	W96
// 044   ----------------------------------------
	BYTE	W96
// 045   ----------------------------------------
	BYTE	W96
// 046   ----------------------------------------
	BYTE	W96
// 047   ----------------------------------------
	BYTE	W96
// 048   ----------------------------------------
	BYTE	W96
// 049   ----------------------------------------
	BYTE	W96
// 050   ----------------------------------------
	BYTE	W96
// 051   ----------------------------------------
	BYTE	W96
// 052   ----------------------------------------
	BYTE	W96
// 053   ----------------------------------------
	BYTE	W96
// 054   ----------------------------------------
	BYTE		VOL     63*sans_mvl/mxv
	BYTE	W12
	BYTE		N06     Fn2 
	BYTE		N06     Fn3 
	BYTE		N06     Fn4 
	BYTE	W12
	BYTE		        En2 
	BYTE		N06     En3 
	BYTE		N06     En4 
	BYTE	W18
	BYTE		        Cn2 
	BYTE		N06     Cn3 
	BYTE		N06     Cn4 
	BYTE	W12
	BYTE		        En2 
	BYTE		N06     En3 
	BYTE		N06     En4 
	BYTE	W11
	BYTE		        Dn2 
	BYTE		N06     Dn3 
	BYTE		N06     Dn4 
	BYTE	W13
	BYTE		        An1 
	BYTE		N06     An2 
	BYTE		N06     An3 
	BYTE	W06
	BYTE		        Cn2 
	BYTE		N06     Cn3 
	BYTE		N06     Cn4 
	BYTE	W06
	BYTE		        Dn2 
	BYTE		N06     Dn3 
	BYTE		N06     Dn4 
	BYTE	W06
// 055   ----------------------------------------
	BYTE	W12
	BYTE		        Fn2 
	BYTE		N06     Fn3 
	BYTE		N06     Fn4 
	BYTE	W12
	BYTE		        En2 
	BYTE		N06     En3 
	BYTE		N06     En4 
	BYTE	W18
	BYTE		        Cn2 
	BYTE		N06     Cn3 
	BYTE		N06     Cn4 
	BYTE	W12
	BYTE		        En2 
	BYTE		N06     En3 
	BYTE		N06     En4 
	BYTE	W11
	BYTE		        Dn2 
	BYTE		N06     Dn3 
	BYTE		N06     Dn4 
	BYTE	W13
	BYTE		        An1 
	BYTE		N06     An2 
	BYTE		N06     An3 
	BYTE	W06
	BYTE		        Cn2 
	BYTE		N06     Cn3 
	BYTE		N06     Cn4 
	BYTE	W06
	BYTE		        Dn2 
	BYTE		N06     Dn3 
	BYTE		N06     Dn4 
	BYTE	W06
// 056   ----------------------------------------
	BYTE	W01
	BYTE		VOL     99*sans_mvl/mxv
	BYTE	W92
	BYTE	W03
// 057   ----------------------------------------
	BYTE	W96
// 058   ----------------------------------------
	BYTE	W96
// 059   ----------------------------------------
	BYTE	W96
// 060   ----------------------------------------
	BYTE	W96
// 061   ----------------------------------------
	BYTE	W96
// 062   ----------------------------------------
	BYTE	W96
// 063   ----------------------------------------
	BYTE	W96
// 064   ----------------------------------------
	BYTE	W96
// 065   ----------------------------------------
	BYTE	W96
// 066   ----------------------------------------
	BYTE	W96
// 067   ----------------------------------------
	BYTE	W96
// 068   ----------------------------------------
	BYTE	W96
// 069   ----------------------------------------
	BYTE	W96
// 070   ----------------------------------------
	BYTE	W96
// 071   ----------------------------------------
	BYTE	W96
// 072   ----------------------------------------
	BYTE	W96
// 073   ----------------------------------------
	BYTE	W96
// 074   ----------------------------------------
	BYTE	W96
// 075   ----------------------------------------
	BYTE	W96
// 076   ----------------------------------------
	BYTE	W96
// 077   ----------------------------------------
	BYTE	W96
	BYTE	GoTo
	 POIN2	sans_5_B1
sans_5_B2:
// 078   ----------------------------------------
	BYTE		VOICE   61
	BYTE		BEND    c_v+0
	BYTE	FINE

//**************** Track 6 (Midi-Chn.6) ****************//

sans_6:
	BYTE	KEYSH   sans_key+0
sans_6_B1:
// 000   ----------------------------------------
	BYTE		VOICE   80
	BYTE		PAN     c_v+8
	BYTE		VOL     97*sans_mvl/mxv
	BYTE		BEND    c_v+0
	BYTE	W96
// 001   ----------------------------------------
	BYTE	W96
// 002   ----------------------------------------
	BYTE	W96
// 003   ----------------------------------------
	BYTE	W96
// 004   ----------------------------------------
	BYTE	W96
// 005   ----------------------------------------
	BYTE	W96
// 006   ----------------------------------------
	BYTE	W96
// 007   ----------------------------------------
	BYTE	W96
// 008   ----------------------------------------
	BYTE	W96
// 009   ----------------------------------------
	BYTE	W96
// 010   ----------------------------------------
	BYTE	W96
// 011   ----------------------------------------
	BYTE	W96
// 012   ----------------------------------------
	BYTE	W96
// 013   ----------------------------------------
	BYTE	W96
// 014   ----------------------------------------
	BYTE	W96
// 015   ----------------------------------------
	BYTE	W64
	BYTE	W01
	BYTE		VOL     0*sans_mvl/mxv
	BYTE	W03
	BYTE		        3*sans_mvl/mxv
	BYTE	W01
	BYTE		        6*sans_mvl/mxv
	BYTE	W01
	BYTE		        10*sans_mvl/mxv
	BYTE	W01
	BYTE		        13*sans_mvl/mxv
	BYTE	W01
	BYTE		        17*sans_mvl/mxv
	BYTE		N24     Cn3   v100
	BYTE	W01
	BYTE		VOL     20*sans_mvl/mxv
	BYTE	W01
	BYTE		        24*sans_mvl/mxv
	BYTE	W01
	BYTE		        27*sans_mvl/mxv
	BYTE		BEND    c_v+0
	BYTE	W01
	BYTE		VOL     31*sans_mvl/mxv
	BYTE		BEND    c_v+1
	BYTE	W01
	BYTE		VOL     34*sans_mvl/mxv
	BYTE		BEND    c_v+2
	BYTE	W01
	BYTE		VOL     37*sans_mvl/mxv
	BYTE		BEND    c_v+4
	BYTE	W01
	BYTE		VOL     41*sans_mvl/mxv
	BYTE		BEND    c_v+5
	BYTE	W01
	BYTE		VOL     44*sans_mvl/mxv
	BYTE		BEND    c_v+6
	BYTE	W01
	BYTE		VOL     48*sans_mvl/mxv
	BYTE		BEND    c_v+8
	BYTE	W01
	BYTE		VOL     51*sans_mvl/mxv
	BYTE		BEND    c_v+9
	BYTE	W01
	BYTE		VOL     55*sans_mvl/mxv
	BYTE		BEND    c_v+10
	BYTE	W01
	BYTE		VOL     58*sans_mvl/mxv
	BYTE		BEND    c_v+12
	BYTE	W01
	BYTE		VOL     62*sans_mvl/mxv
	BYTE		BEND    c_v+13
	BYTE	W01
	BYTE		VOL     65*sans_mvl/mxv
	BYTE		BEND    c_v+14
	BYTE	W01
	BYTE		VOL     69*sans_mvl/mxv
	BYTE		BEND    c_v+16
	BYTE	W01
	BYTE		VOL     72*sans_mvl/mxv
	BYTE		BEND    c_v+17
	BYTE	W01
	BYTE		VOL     75*sans_mvl/mxv
	BYTE		BEND    c_v+18
	BYTE	W01
	BYTE		VOL     79*sans_mvl/mxv
	BYTE		BEND    c_v+19
	BYTE	W01
	BYTE		VOL     82*sans_mvl/mxv
	BYTE		BEND    c_v+21
	BYTE	W01
	BYTE		VOL     86*sans_mvl/mxv
	BYTE		BEND    c_v+22
	BYTE	W01
	BYTE		VOL     89*sans_mvl/mxv
	BYTE		BEND    c_v+23
	BYTE	W01
	BYTE		VOL     93*sans_mvl/mxv
	BYTE		BEND    c_v+25
	BYTE	W01
	BYTE		VOL     96*sans_mvl/mxv
	BYTE		BEND    c_v+26
	BYTE	W01
// 016   ----------------------------------------
	BYTE		VOL     97*sans_mvl/mxv
	BYTE		BEND    c_v+0
	BYTE		N04     Fn3 
	BYTE	W10
	BYTE		N04   
	BYTE	W08
	BYTE		N04   
	BYTE	W12
	BYTE		BEND    c_v+2
	BYTE		N06     En3 
	BYTE	W01
	BYTE		BEND    c_v+4
	BYTE	W01
	BYTE		        c_v+5
	BYTE	W04
	BYTE		        c_v+0
	BYTE	W06
	BYTE		N04     Fn3 
	BYTE	W12
	BYTE		        Dn3 
	BYTE	W12
	BYTE		N24   
	BYTE	W30
// 017   ----------------------------------------
	BYTE		N03     Fn3 
	BYTE	W12
	BYTE		N03   
	BYTE	W06
	BYTE		N03   
	BYTE	W12
	BYTE		        Gn3 
	BYTE	W12
	BYTE		N12     Gs3 
	BYTE	W12
	BYTE		N01     Gn3 
	BYTE	W01
	BYTE		        Fn3 
	BYTE	W02
	BYTE		        Gs3 
	BYTE	W01
	BYTE		        Gn3 
	BYTE	W02
	BYTE		N03     Fn3 
	BYTE	W06
	BYTE		        Dn3 
	BYTE	W06
	BYTE		N06     Fn3 
	BYTE	W06
	BYTE		N03     Gn3 
	BYTE	W18
// 018   ----------------------------------------
	BYTE		N04     Fn3 
	BYTE	W12
	BYTE		N04   
	BYTE	W06
	BYTE		N04   
	BYTE	W12
	BYTE		        Gn3 
	BYTE	W12
	BYTE		        Gs3 
	BYTE	W12
	BYTE		        An3 
	BYTE	W12
	BYTE		        Cn4 
	BYTE	W12
	BYTE		N18     An3 
	BYTE	W18
// 019   ----------------------------------------
	BYTE		N04     Dn4 
	BYTE	W10
	BYTE		N04   
	BYTE	W14
	BYTE		N04   
	BYTE	W06
	BYTE		        An3 
	BYTE	W06
	BYTE		        Dn4 
	BYTE	W06
	BYTE		N54     Cn4 
	BYTE	W54
// 020   ----------------------------------------
	BYTE		N04     An3 
	BYTE	W10
	BYTE		N04   
	BYTE	W08
	BYTE		N04   
	BYTE	W12
	BYTE		N04   
	BYTE	W12
	BYTE		N04   
	BYTE	W12
	BYTE		        Gn3 
	BYTE	W12
	BYTE		N24   
	BYTE	W30
// 021   ----------------------------------------
	BYTE		N04     An3 
	BYTE	W12
	BYTE		N04   
	BYTE	W06
	BYTE		N04   
	BYTE	W12
	BYTE		N04   
	BYTE	W12
	BYTE		        Gn3 
	BYTE	W12
	BYTE		        An3 
	BYTE	W12
	BYTE		        Dn4 
	BYTE	W12
	BYTE		        An3 
	BYTE	W06
	BYTE		N12     Gn3 
	BYTE	W12
// 022   ----------------------------------------
	BYTE		N04     Dn4 
	BYTE	W12
	BYTE		        An3 
	BYTE	W12
	BYTE		        Gn3 
	BYTE	W12
	BYTE		        Fn3 
	BYTE	W12
	BYTE		        Cn4 
	BYTE	W12
	BYTE		        Gn3 
	BYTE	W12
	BYTE		        Fn3 
	BYTE	W12
	BYTE		        En3 
	BYTE	W12
// 023   ----------------------------------------
	BYTE		        As2 
	BYTE	W12
	BYTE		        Dn3 
	BYTE	W06
	BYTE		        En3 
	BYTE	W13
	BYTE		        Fn3 
	BYTE	W11
	BYTE		N48     Cn4 
	BYTE	W54
// 024   ----------------------------------------
	BYTE	W96
// 025   ----------------------------------------
	BYTE	W96
// 026   ----------------------------------------
	BYTE	W96
// 027   ----------------------------------------
	BYTE	W96
// 028   ----------------------------------------
	BYTE	W96
// 029   ----------------------------------------
	BYTE	W96
// 030   ----------------------------------------
	BYTE	W96
// 031   ----------------------------------------
	BYTE	W96
// 032   ----------------------------------------
	BYTE	W96
// 033   ----------------------------------------
	BYTE	W96
// 034   ----------------------------------------
	BYTE	W96
// 035   ----------------------------------------
	BYTE	W96
// 036   ----------------------------------------
	BYTE	W96
// 037   ----------------------------------------
	BYTE	W96
// 038   ----------------------------------------
	BYTE	W96
// 039   ----------------------------------------
	BYTE	W96
// 040   ----------------------------------------
	BYTE	W96
// 041   ----------------------------------------
	BYTE	W96
// 042   ----------------------------------------
	BYTE	W96
// 043   ----------------------------------------
	BYTE	W96
// 044   ----------------------------------------
	BYTE	W96
// 045   ----------------------------------------
	BYTE	W96
// 046   ----------------------------------------
	BYTE	W96
// 047   ----------------------------------------
	BYTE	W96
// 048   ----------------------------------------
	BYTE	W96
// 049   ----------------------------------------
	BYTE	W96
// 050   ----------------------------------------
	BYTE	W96
// 051   ----------------------------------------
	BYTE	W96
// 052   ----------------------------------------
	BYTE	W96
// 053   ----------------------------------------
	BYTE	W96
// 054   ----------------------------------------
	BYTE	W96
// 055   ----------------------------------------
	BYTE	W96
// 056   ----------------------------------------
	BYTE	W96
// 057   ----------------------------------------
	BYTE	W96
// 058   ----------------------------------------
	BYTE	W96
// 059   ----------------------------------------
	BYTE	W96
// 060   ----------------------------------------
	BYTE	W96
// 061   ----------------------------------------
	BYTE	W96
// 062   ----------------------------------------
	BYTE	W96
// 063   ----------------------------------------
	BYTE	W96
// 064   ----------------------------------------
	BYTE	W96
// 065   ----------------------------------------
	BYTE	W96
// 066   ----------------------------------------
	BYTE	W96
// 067   ----------------------------------------
	BYTE	W96
// 068   ----------------------------------------
	BYTE	W96
// 069   ----------------------------------------
	BYTE	W96
// 070   ----------------------------------------
	BYTE	W96
// 071   ----------------------------------------
	BYTE	W96
// 072   ----------------------------------------
	BYTE	W96
// 073   ----------------------------------------
	BYTE	W96
// 074   ----------------------------------------
	BYTE	W96
// 075   ----------------------------------------
	BYTE	W96
// 076   ----------------------------------------
	BYTE	W96
// 077   ----------------------------------------
	BYTE	W96
	BYTE	GoTo
	 POIN2	sans_6_B1
sans_6_B2:
// 078   ----------------------------------------
	BYTE		VOICE   80
	BYTE		BEND    c_v+0
	BYTE	FINE

//**************** Track 7 (Midi-Chn.7) ****************//

sans_7:
	BYTE	KEYSH   sans_key+0
sans_7_B1:
// 000   ----------------------------------------
	BYTE		VOICE   56
	BYTE		PAN     c_v+10
	BYTE		VOL     108*sans_mvl/mxv
	BYTE		BEND    c_v+0
	BYTE	W96
// 001   ----------------------------------------
	BYTE	W96
// 002   ----------------------------------------
	BYTE	W96
// 003   ----------------------------------------
	BYTE	W96
// 004   ----------------------------------------
	BYTE	W96
// 005   ----------------------------------------
	BYTE	W96
// 006   ----------------------------------------
	BYTE	W96
// 007   ----------------------------------------
	BYTE	W96
// 008   ----------------------------------------
	BYTE	W96
// 009   ----------------------------------------
	BYTE	W96
// 010   ----------------------------------------
	BYTE	W96
// 011   ----------------------------------------
	BYTE	W96
// 012   ----------------------------------------
	BYTE	W96
// 013   ----------------------------------------
	BYTE	W96
// 014   ----------------------------------------
	BYTE	W96
// 015   ----------------------------------------
	BYTE	W96
// 016   ----------------------------------------
	BYTE	W96
// 017   ----------------------------------------
	BYTE	W96
// 018   ----------------------------------------
	BYTE	W96
// 019   ----------------------------------------
	BYTE	W96
// 020   ----------------------------------------
	BYTE	W96
// 021   ----------------------------------------
	BYTE	W96
// 022   ----------------------------------------
	BYTE	W96
// 023   ----------------------------------------
	BYTE	W96
// 024   ----------------------------------------
sans_7_024:
	BYTE	W48
	BYTE		N02     Fn4   v100
	BYTE	W06
	BYTE		        Dn4 
	BYTE	W06
	BYTE		        Fn4 
	BYTE	W06
	BYTE		        Gn4 
	BYTE	W06
	BYTE		        Gs4 
	BYTE	W06
	BYTE		        Gn4 
	BYTE	W06
	BYTE		        Fn4 
	BYTE	W06
	BYTE		        Dn4 
	BYTE	W06
	BYTE	PEND
// 025   ----------------------------------------
sans_7_025:
	BYTE		N01     Gs4   v100
	BYTE	W03
	BYTE		        Gn4 
	BYTE	W03
	BYTE		        Fn4 
	BYTE	W03
	BYTE		        Dn4 
	BYTE	W03
	BYTE		N06     Fn4 
	BYTE	W12
	BYTE		N56     Gn4 
	BYTE	W56
	BYTE	W01
	BYTE		N06     Gs4 
	BYTE	W09
	BYTE		N03     An4 
	BYTE	W06
	BYTE	PEND
// 026   ----------------------------------------
sans_7_026:
	BYTE		N06     Cn5   v100
	BYTE	W12
	BYTE		N03     An4 
	BYTE	W06
	BYTE		        Gs4 
	BYTE	W06
	BYTE		        Gn4 
	BYTE	W06
	BYTE		        Fn4 
	BYTE	W06
	BYTE		        Dn4 
	BYTE	W06
	BYTE		N06     En4 
	BYTE	W06
	BYTE		        Fn4 
	BYTE	W12
	BYTE		        Gn4 
	BYTE	W12
	BYTE		        An4 
	BYTE	W12
	BYTE		        Cn5 
	BYTE	W12
	BYTE	PEND
// 027   ----------------------------------------
	BYTE		N12     Cs5 
	BYTE	W12
	BYTE		N06     Gs4 
	BYTE	W12
	BYTE		N06   
	BYTE	W06
	BYTE		        Gn4 
	BYTE	W06
	BYTE		        Fn4 
	BYTE	W06
	BYTE		N54     Gn4 
	BYTE	W42
	BYTE		BEND    c_v-3
	BYTE	W01
	BYTE		        c_v-9
	BYTE	W01
	BYTE		        c_v-14
	BYTE	W01
	BYTE		        c_v-20
	BYTE	W01
	BYTE		        c_v-26
	BYTE	W01
	BYTE		        c_v-31
	BYTE	W01
	BYTE		        c_v-37
	BYTE	W01
	BYTE		        c_v-42
	BYTE	W01
	BYTE		        c_v-48
	BYTE	W01
	BYTE		        c_v-53
	BYTE	W01
	BYTE		        c_v-59
	BYTE	W01
	BYTE		        c_v-64
	BYTE	W01
// 028   ----------------------------------------
	BYTE		        c_v+0
	BYTE	W96
// 029   ----------------------------------------
	BYTE	W96
// 030   ----------------------------------------
sans_7_030:
	BYTE	W48
	BYTE		N03     An4   v100
	BYTE	W06
	BYTE		        Gs4 
	BYTE	W06
	BYTE		        Gn4 
	BYTE	W06
	BYTE		        Fs4 
	BYTE	W06
	BYTE		        Fn4 
	BYTE	W06
	BYTE		        En4 
	BYTE	W06
	BYTE		        Ds4 
	BYTE	W06
	BYTE		        Dn4 
	BYTE	W06
	BYTE	PEND
// 031   ----------------------------------------
	BYTE		N42     Cs4 
	BYTE	W07
	BYTE		BEND    c_v+0
	BYTE	W01
	BYTE		        c_v+0
	BYTE	W01
	BYTE		        c_v+0
	BYTE	W01
	BYTE		        c_v+0
	BYTE	W01
	BYTE		        c_v+0
	BYTE	W01
	BYTE		        c_v+0
	BYTE	W01
	BYTE		        c_v+0
	BYTE	W01
	BYTE		        c_v+1
	BYTE	W01
	BYTE		        c_v+1
	BYTE	W01
	BYTE		        c_v+1
	BYTE	W01
	BYTE		        c_v+1
	BYTE	W01
	BYTE		        c_v+1
	BYTE	W01
	BYTE		        c_v+1
	BYTE	W01
	BYTE		        c_v+1
	BYTE	W01
	BYTE		        c_v+2
	BYTE	W01
	BYTE		        c_v+2
	BYTE	W01
	BYTE		        c_v+2
	BYTE	W01
	BYTE		        c_v+2
	BYTE	W01
	BYTE		        c_v+2
	BYTE	W01
	BYTE		        c_v+2
	BYTE	W01
	BYTE		        c_v+3
	BYTE	W01
	BYTE		        c_v+3
	BYTE	W01
	BYTE		        c_v+3
	BYTE	W01
	BYTE		        c_v+3
	BYTE	W01
	BYTE		        c_v+3
	BYTE	W01
	BYTE		        c_v+3
	BYTE	W01
	BYTE		        c_v+3
	BYTE	W01
	BYTE		        c_v+4
	BYTE	W01
	BYTE		        c_v+4
	BYTE	W01
	BYTE		        c_v+4
	BYTE	W01
	BYTE		        c_v+4
	BYTE	W01
	BYTE		        c_v+4
	BYTE	W01
	BYTE		        c_v+4
	BYTE	W01
	BYTE		        c_v+4
	BYTE	W01
	BYTE		        c_v+5
	BYTE	W01
	BYTE		        c_v+0
	BYTE	W06
	BYTE		N48     Ds4 
	BYTE	W48
// 032   ----------------------------------------
	BYTE	PATT
	 POIN2	sans_7_024
// 033   ----------------------------------------
	BYTE	PATT
	 POIN2	sans_7_025
// 034   ----------------------------------------
	BYTE	PATT
	 POIN2	sans_7_026
// 035   ----------------------------------------
	BYTE		N12     Cs5   v100
	BYTE	W12
	BYTE		N06     Gs4 
	BYTE	W12
	BYTE		N06   
	BYTE	W06
	BYTE		        Gn4 
	BYTE	W06
	BYTE		        Fn4 
	BYTE	W06
	BYTE		N54     Gn4 
	BYTE	W42
	BYTE	W01
	BYTE		BEND    c_v-2
	BYTE	W01
	BYTE		        c_v-8
	BYTE	W01
	BYTE		        c_v-14
	BYTE	W01
	BYTE		        c_v-20
	BYTE	W01
	BYTE		        c_v-26
	BYTE	W01
	BYTE		        c_v-32
	BYTE	W01
	BYTE		        c_v-39
	BYTE	W01
	BYTE		        c_v-45
	BYTE	W01
	BYTE		        c_v-51
	BYTE	W01
	BYTE		        c_v-57
	BYTE	W01
	BYTE		        c_v-63
	BYTE	W01
// 036   ----------------------------------------
	BYTE		        c_v+0
	BYTE	W96
// 037   ----------------------------------------
	BYTE	W96
// 038   ----------------------------------------
	BYTE	PATT
	 POIN2	sans_7_030
// 039   ----------------------------------------
	BYTE		N42     Cs4   v100
	BYTE	W08
	BYTE		BEND    c_v+0
	BYTE	W01
	BYTE		        c_v+0
	BYTE	W01
	BYTE		        c_v+0
	BYTE	W01
	BYTE		        c_v+0
	BYTE	W01
	BYTE		        c_v+0
	BYTE	W01
	BYTE		        c_v+0
	BYTE	W01
	BYTE		        c_v+0
	BYTE	W01
	BYTE		        c_v+1
	BYTE	W01
	BYTE		        c_v+1
	BYTE	W01
	BYTE		        c_v+1
	BYTE	W01
	BYTE		        c_v+1
	BYTE	W01
	BYTE		        c_v+1
	BYTE	W01
	BYTE		        c_v+1
	BYTE	W01
	BYTE		        c_v+1
	BYTE	W01
	BYTE		        c_v+1
	BYTE	W01
	BYTE		        c_v+2
	BYTE	W01
	BYTE		        c_v+2
	BYTE	W01
	BYTE		        c_v+2
	BYTE	W01
	BYTE		        c_v+2
	BYTE	W01
	BYTE		        c_v+2
	BYTE	W01
	BYTE		        c_v+2
	BYTE	W01
	BYTE		        c_v+2
	BYTE	W01
	BYTE		        c_v+3
	BYTE	W01
	BYTE		        c_v+3
	BYTE	W01
	BYTE		        c_v+3
	BYTE	W01
	BYTE		        c_v+3
	BYTE	W01
	BYTE		        c_v+3
	BYTE	W01
	BYTE		        c_v+3
	BYTE	W01
	BYTE		        c_v+3
	BYTE	W01
	BYTE		        c_v+3
	BYTE	W01
	BYTE		        c_v+4
	BYTE	W01
	BYTE		        c_v+4
	BYTE	W01
	BYTE		        c_v+4
	BYTE	W01
	BYTE		        c_v+4
	BYTE	W01
	BYTE		        c_v+0
	BYTE	W06
	BYTE		N48     Ds4 
	BYTE	W48
// 040   ----------------------------------------
	BYTE	W96
// 041   ----------------------------------------
	BYTE	W96
// 042   ----------------------------------------
	BYTE	W96
// 043   ----------------------------------------
	BYTE	W96
// 044   ----------------------------------------
	BYTE	W96
// 045   ----------------------------------------
	BYTE	W96
// 046   ----------------------------------------
	BYTE	W96
// 047   ----------------------------------------
	BYTE	W96
// 048   ----------------------------------------
	BYTE	W96
// 049   ----------------------------------------
	BYTE	W96
// 050   ----------------------------------------
	BYTE	W96
// 051   ----------------------------------------
	BYTE	W96
// 052   ----------------------------------------
	BYTE	W96
// 053   ----------------------------------------
	BYTE	W96
// 054   ----------------------------------------
	BYTE	W96
// 055   ----------------------------------------
	BYTE	W96
// 056   ----------------------------------------
	BYTE	W96
// 057   ----------------------------------------
	BYTE	W96
// 058   ----------------------------------------
	BYTE	W96
// 059   ----------------------------------------
	BYTE	W96
// 060   ----------------------------------------
	BYTE	W96
// 061   ----------------------------------------
	BYTE	W96
// 062   ----------------------------------------
	BYTE	W96
// 063   ----------------------------------------
	BYTE	W96
// 064   ----------------------------------------
	BYTE	W96
// 065   ----------------------------------------
	BYTE	W96
// 066   ----------------------------------------
	BYTE	W96
// 067   ----------------------------------------
	BYTE	W96
// 068   ----------------------------------------
	BYTE	W96
// 069   ----------------------------------------
	BYTE	W96
// 070   ----------------------------------------
	BYTE	W96
// 071   ----------------------------------------
	BYTE	W96
// 072   ----------------------------------------
	BYTE	W96
// 073   ----------------------------------------
	BYTE	W96
// 074   ----------------------------------------
	BYTE	W96
// 075   ----------------------------------------
	BYTE	W96
// 076   ----------------------------------------
	BYTE	W96
// 077   ----------------------------------------
	BYTE	W96
	BYTE	GoTo
	 POIN2	sans_7_B1
sans_7_B2:
// 078   ----------------------------------------
	BYTE		VOICE   56
	BYTE		BEND    c_v+0
	BYTE	FINE

//**************** Track 8 (Midi-Chn.8) ****************//

sans_8:
	BYTE	KEYSH   sans_key+0
sans_8_B1:
// 000   ----------------------------------------
	BYTE		VOICE   52
	BYTE		PAN     c_v-9
	BYTE		VOL     126*sans_mvl/mxv
	BYTE		BEND    c_v+0
	BYTE	W96
// 001   ----------------------------------------
	BYTE	W96
// 002   ----------------------------------------
	BYTE	W96
// 003   ----------------------------------------
	BYTE	W96
// 004   ----------------------------------------
	BYTE	W96
// 005   ----------------------------------------
	BYTE	W96
// 006   ----------------------------------------
	BYTE	W96
// 007   ----------------------------------------
	BYTE	W96
// 008   ----------------------------------------
	BYTE	W96
// 009   ----------------------------------------
	BYTE	W96
// 010   ----------------------------------------
	BYTE	W96
// 011   ----------------------------------------
	BYTE	W96
// 012   ----------------------------------------
	BYTE	W96
// 013   ----------------------------------------
	BYTE	W96
// 014   ----------------------------------------
	BYTE	W96
// 015   ----------------------------------------
	BYTE	W96
// 016   ----------------------------------------
	BYTE	W96
// 017   ----------------------------------------
	BYTE	W96
// 018   ----------------------------------------
	BYTE	W96
// 019   ----------------------------------------
	BYTE	W96
// 020   ----------------------------------------
	BYTE	W96
// 021   ----------------------------------------
	BYTE	W96
// 022   ----------------------------------------
	BYTE	W96
// 023   ----------------------------------------
	BYTE	W96
// 024   ----------------------------------------
	BYTE	W96
// 025   ----------------------------------------
	BYTE	W96
// 026   ----------------------------------------
	BYTE	W96
// 027   ----------------------------------------
	BYTE	W96
// 028   ----------------------------------------
	BYTE	W96
// 029   ----------------------------------------
	BYTE	W96
// 030   ----------------------------------------
	BYTE	W96
// 031   ----------------------------------------
	BYTE	W96
// 032   ----------------------------------------
	BYTE	W96
// 033   ----------------------------------------
	BYTE	W96
// 034   ----------------------------------------
	BYTE	W96
// 035   ----------------------------------------
	BYTE	W96
// 036   ----------------------------------------
	BYTE	W96
// 037   ----------------------------------------
	BYTE	W96
// 038   ----------------------------------------
	BYTE	W96
// 039   ----------------------------------------
	BYTE	W96
// 040   ----------------------------------------
	BYTE		N72     As1   v100
	BYTE	W72
	BYTE		N24     Fn2 
	BYTE	W24
// 041   ----------------------------------------
sans_8_041:
	BYTE		N48     En2   v100
	BYTE	W48
	BYTE		        Dn2 
	BYTE	W48
	BYTE	PEND
// 042   ----------------------------------------
	BYTE		TIE     Fn2 
	BYTE	W96
// 043   ----------------------------------------
	BYTE		VOL     96*sans_mvl/mxv
	BYTE	W01
	BYTE		        95*sans_mvl/mxv
	BYTE	W01
	BYTE		        94*sans_mvl/mxv
	BYTE	W01
	BYTE		        93*sans_mvl/mxv
	BYTE	W01
	BYTE		        92*sans_mvl/mxv
	BYTE	W01
	BYTE		        91*sans_mvl/mxv
	BYTE	W01
	BYTE		        90*sans_mvl/mxv
	BYTE	W01
	BYTE		        89*sans_mvl/mxv
	BYTE	W01
	BYTE		        88*sans_mvl/mxv
	BYTE	W01
	BYTE		        87*sans_mvl/mxv
	BYTE	W01
	BYTE		        86*sans_mvl/mxv
	BYTE	W01
	BYTE		        85*sans_mvl/mxv
	BYTE	W01
	BYTE		        84*sans_mvl/mxv
	BYTE	W01
	BYTE		        83*sans_mvl/mxv
	BYTE	W01
	BYTE		        82*sans_mvl/mxv
	BYTE	W01
	BYTE		        81*sans_mvl/mxv
	BYTE	W01
	BYTE		        80*sans_mvl/mxv
	BYTE	W01
	BYTE		        79*sans_mvl/mxv
	BYTE	W01
	BYTE		        78*sans_mvl/mxv
	BYTE	W01
	BYTE		        77*sans_mvl/mxv
	BYTE	W01
	BYTE		        76*sans_mvl/mxv
	BYTE	W01
	BYTE		        75*sans_mvl/mxv
	BYTE	W01
	BYTE		        74*sans_mvl/mxv
	BYTE	W01
	BYTE		        73*sans_mvl/mxv
	BYTE	W01
	BYTE		        72*sans_mvl/mxv
	BYTE	W01
	BYTE		        71*sans_mvl/mxv
	BYTE	W01
	BYTE		        70*sans_mvl/mxv
	BYTE	W01
	BYTE		        69*sans_mvl/mxv
	BYTE	W01
	BYTE		        68*sans_mvl/mxv
	BYTE	W01
	BYTE		        67*sans_mvl/mxv
	BYTE	W01
	BYTE		        65*sans_mvl/mxv
	BYTE	W01
	BYTE		        64*sans_mvl/mxv
	BYTE	W01
	BYTE		        63*sans_mvl/mxv
	BYTE	W01
	BYTE		        62*sans_mvl/mxv
	BYTE	W01
	BYTE		        61*sans_mvl/mxv
	BYTE	W01
	BYTE		        60*sans_mvl/mxv
	BYTE	W01
	BYTE		        59*sans_mvl/mxv
	BYTE	W01
	BYTE		        58*sans_mvl/mxv
	BYTE	W01
	BYTE		        57*sans_mvl/mxv
	BYTE	W01
	BYTE		        56*sans_mvl/mxv
	BYTE	W01
	BYTE		        55*sans_mvl/mxv
	BYTE	W01
	BYTE		        54*sans_mvl/mxv
	BYTE	W01
	BYTE		        53*sans_mvl/mxv
	BYTE	W01
	BYTE		        52*sans_mvl/mxv
	BYTE	W01
	BYTE		        51*sans_mvl/mxv
	BYTE	W01
	BYTE		        50*sans_mvl/mxv
	BYTE	W01
	BYTE		        49*sans_mvl/mxv
	BYTE	W01
	BYTE		        48*sans_mvl/mxv
	BYTE	W01
	BYTE		        47*sans_mvl/mxv
	BYTE	W01
	BYTE		        46*sans_mvl/mxv
	BYTE	W01
	BYTE		        45*sans_mvl/mxv
	BYTE	W01
	BYTE		        44*sans_mvl/mxv
	BYTE	W01
	BYTE		        43*sans_mvl/mxv
	BYTE	W01
	BYTE		        42*sans_mvl/mxv
	BYTE	W01
	BYTE		        41*sans_mvl/mxv
	BYTE	W01
	BYTE		        40*sans_mvl/mxv
	BYTE	W01
	BYTE		        39*sans_mvl/mxv
	BYTE	W01
	BYTE		        38*sans_mvl/mxv
	BYTE	W01
	BYTE		        37*sans_mvl/mxv
	BYTE	W01
	BYTE		        36*sans_mvl/mxv
	BYTE	W01
	BYTE		        35*sans_mvl/mxv
	BYTE	W01
	BYTE		        34*sans_mvl/mxv
	BYTE	W01
	BYTE		        33*sans_mvl/mxv
	BYTE	W01
	BYTE		        32*sans_mvl/mxv
	BYTE	W01
	BYTE		        31*sans_mvl/mxv
	BYTE	W01
	BYTE		        30*sans_mvl/mxv
	BYTE	W01
	BYTE		        29*sans_mvl/mxv
	BYTE	W01
	BYTE		        28*sans_mvl/mxv
	BYTE	W01
	BYTE		        27*sans_mvl/mxv
	BYTE	W01
	BYTE		        26*sans_mvl/mxv
	BYTE	W01
	BYTE		        25*sans_mvl/mxv
	BYTE	W01
	BYTE		        24*sans_mvl/mxv
	BYTE	W01
	BYTE		        23*sans_mvl/mxv
	BYTE	W01
	BYTE		        22*sans_mvl/mxv
	BYTE	W01
	BYTE		        21*sans_mvl/mxv
	BYTE	W01
	BYTE		        20*sans_mvl/mxv
	BYTE	W01
	BYTE		        19*sans_mvl/mxv
	BYTE	W01
	BYTE		        18*sans_mvl/mxv
	BYTE	W01
	BYTE		        17*sans_mvl/mxv
	BYTE	W01
	BYTE		        16*sans_mvl/mxv
	BYTE	W01
	BYTE		        15*sans_mvl/mxv
	BYTE	W01
	BYTE		        14*sans_mvl/mxv
	BYTE	W01
	BYTE		        13*sans_mvl/mxv
	BYTE	W01
	BYTE		        12*sans_mvl/mxv
	BYTE	W01
	BYTE		        11*sans_mvl/mxv
	BYTE	W01
	BYTE		        10*sans_mvl/mxv
	BYTE	W01
	BYTE		        9*sans_mvl/mxv
	BYTE	W01
	BYTE		        8*sans_mvl/mxv
	BYTE	W01
	BYTE		        7*sans_mvl/mxv
	BYTE	W01
	BYTE		        6*sans_mvl/mxv
	BYTE	W01
	BYTE		        5*sans_mvl/mxv
	BYTE	W01
	BYTE		        4*sans_mvl/mxv
	BYTE	W01
	BYTE		        3*sans_mvl/mxv
	BYTE	W01
	BYTE		        2*sans_mvl/mxv
	BYTE	W01
	BYTE		        1*sans_mvl/mxv
	BYTE	W01
	BYTE		        0*sans_mvl/mxv
	BYTE	W01
	BYTE		EOT   
// 044   ----------------------------------------
	BYTE		VOL     126*sans_mvl/mxv
	BYTE		N72     As1 
	BYTE	W72
	BYTE		N24     Fn2 
	BYTE	W24
// 045   ----------------------------------------
sans_8_045:
	BYTE		N48     En2   v100
	BYTE	W48
	BYTE		N44     Dn2 
	BYTE	W48
	BYTE	PEND
// 046   ----------------------------------------
	BYTE		TIE   
	BYTE	W96
// 047   ----------------------------------------
	BYTE		VOL     96*sans_mvl/mxv
	BYTE		BEND    c_v-1
	BYTE	W01
	BYTE		VOL     95*sans_mvl/mxv
	BYTE		BEND    c_v-2
	BYTE	W01
	BYTE		VOL     94*sans_mvl/mxv
	BYTE		BEND    c_v-2
	BYTE	W01
	BYTE		VOL     93*sans_mvl/mxv
	BYTE		BEND    c_v-3
	BYTE	W01
	BYTE		VOL     92*sans_mvl/mxv
	BYTE		BEND    c_v-4
	BYTE	W01
	BYTE		VOL     91*sans_mvl/mxv
	BYTE		BEND    c_v-4
	BYTE	W01
	BYTE		VOL     90*sans_mvl/mxv
	BYTE		BEND    c_v-5
	BYTE	W01
	BYTE		VOL     89*sans_mvl/mxv
	BYTE		BEND    c_v-6
	BYTE	W01
	BYTE		VOL     88*sans_mvl/mxv
	BYTE		BEND    c_v-6
	BYTE	W01
	BYTE		VOL     87*sans_mvl/mxv
	BYTE		BEND    c_v-7
	BYTE	W01
	BYTE		VOL     86*sans_mvl/mxv
	BYTE		BEND    c_v-8
	BYTE	W01
	BYTE		VOL     85*sans_mvl/mxv
	BYTE		BEND    c_v-8
	BYTE	W01
	BYTE		VOL     84*sans_mvl/mxv
	BYTE		BEND    c_v-9
	BYTE	W01
	BYTE		VOL     83*sans_mvl/mxv
	BYTE		BEND    c_v-10
	BYTE	W01
	BYTE		VOL     82*sans_mvl/mxv
	BYTE		BEND    c_v-10
	BYTE	W01
	BYTE		VOL     81*sans_mvl/mxv
	BYTE		BEND    c_v-11
	BYTE	W01
	BYTE		VOL     80*sans_mvl/mxv
	BYTE		BEND    c_v-12
	BYTE	W01
	BYTE		VOL     79*sans_mvl/mxv
	BYTE		BEND    c_v-12
	BYTE	W01
	BYTE		VOL     78*sans_mvl/mxv
	BYTE		BEND    c_v-13
	BYTE	W01
	BYTE		VOL     77*sans_mvl/mxv
	BYTE		BEND    c_v-14
	BYTE	W01
	BYTE		VOL     76*sans_mvl/mxv
	BYTE		BEND    c_v-14
	BYTE	W01
	BYTE		VOL     75*sans_mvl/mxv
	BYTE		BEND    c_v-15
	BYTE	W01
	BYTE		VOL     73*sans_mvl/mxv
	BYTE		BEND    c_v-16
	BYTE	W01
	BYTE		VOL     72*sans_mvl/mxv
	BYTE		BEND    c_v-16
	BYTE	W01
	BYTE		VOL     71*sans_mvl/mxv
	BYTE		BEND    c_v-17
	BYTE	W01
	BYTE		VOL     70*sans_mvl/mxv
	BYTE		BEND    c_v-18
	BYTE	W01
	BYTE		VOL     69*sans_mvl/mxv
	BYTE		BEND    c_v-18
	BYTE	W01
	BYTE		VOL     68*sans_mvl/mxv
	BYTE		BEND    c_v-19
	BYTE	W01
	BYTE		VOL     67*sans_mvl/mxv
	BYTE		BEND    c_v-19
	BYTE	W01
	BYTE		VOL     66*sans_mvl/mxv
	BYTE		BEND    c_v-20
	BYTE	W01
	BYTE		VOL     65*sans_mvl/mxv
	BYTE		BEND    c_v-21
	BYTE	W01
	BYTE		VOL     64*sans_mvl/mxv
	BYTE		BEND    c_v-22
	BYTE	W01
	BYTE		VOL     63*sans_mvl/mxv
	BYTE		BEND    c_v-22
	BYTE	W01
	BYTE		VOL     62*sans_mvl/mxv
	BYTE		BEND    c_v-23
	BYTE	W01
	BYTE		VOL     61*sans_mvl/mxv
	BYTE		BEND    c_v-23
	BYTE	W01
	BYTE		VOL     60*sans_mvl/mxv
	BYTE		BEND    c_v-24
	BYTE	W01
	BYTE		VOL     59*sans_mvl/mxv
	BYTE		BEND    c_v-25
	BYTE	W01
	BYTE		VOL     58*sans_mvl/mxv
	BYTE		BEND    c_v-25
	BYTE	W01
	BYTE		VOL     57*sans_mvl/mxv
	BYTE		BEND    c_v-26
	BYTE	W01
	BYTE		VOL     56*sans_mvl/mxv
	BYTE		BEND    c_v-27
	BYTE	W01
	BYTE		VOL     55*sans_mvl/mxv
	BYTE		BEND    c_v-27
	BYTE	W01
	BYTE		VOL     54*sans_mvl/mxv
	BYTE		BEND    c_v-28
	BYTE	W01
	BYTE		VOL     53*sans_mvl/mxv
	BYTE		BEND    c_v-29
	BYTE	W01
	BYTE		VOL     52*sans_mvl/mxv
	BYTE		BEND    c_v-29
	BYTE	W01
	BYTE		VOL     50*sans_mvl/mxv
	BYTE		BEND    c_v-30
	BYTE	W01
	BYTE		VOL     49*sans_mvl/mxv
	BYTE		BEND    c_v-31
	BYTE	W01
	BYTE		VOL     48*sans_mvl/mxv
	BYTE		BEND    c_v-31
	BYTE	W01
	BYTE		VOL     47*sans_mvl/mxv
	BYTE		BEND    c_v-32
	BYTE	W01
	BYTE		VOL     46*sans_mvl/mxv
	BYTE		BEND    c_v-33
	BYTE	W01
	BYTE		VOL     45*sans_mvl/mxv
	BYTE		BEND    c_v-33
	BYTE	W01
	BYTE		VOL     44*sans_mvl/mxv
	BYTE		BEND    c_v-34
	BYTE	W01
	BYTE		VOL     43*sans_mvl/mxv
	BYTE		BEND    c_v-35
	BYTE	W01
	BYTE		VOL     42*sans_mvl/mxv
	BYTE		BEND    c_v-35
	BYTE	W01
	BYTE		VOL     41*sans_mvl/mxv
	BYTE		BEND    c_v-36
	BYTE	W01
	BYTE		VOL     40*sans_mvl/mxv
	BYTE		BEND    c_v-37
	BYTE	W01
	BYTE		VOL     39*sans_mvl/mxv
	BYTE		BEND    c_v-37
	BYTE	W01
	BYTE		VOL     38*sans_mvl/mxv
	BYTE		BEND    c_v-38
	BYTE	W01
	BYTE		VOL     37*sans_mvl/mxv
	BYTE		BEND    c_v-39
	BYTE	W01
	BYTE		VOL     36*sans_mvl/mxv
	BYTE		BEND    c_v-39
	BYTE	W01
	BYTE		VOL     35*sans_mvl/mxv
	BYTE		BEND    c_v-40
	BYTE	W01
	BYTE		VOL     34*sans_mvl/mxv
	BYTE		BEND    c_v-41
	BYTE	W01
	BYTE		VOL     33*sans_mvl/mxv
	BYTE		BEND    c_v-41
	BYTE	W01
	BYTE		VOL     32*sans_mvl/mxv
	BYTE		BEND    c_v-42
	BYTE	W01
	BYTE		VOL     31*sans_mvl/mxv
	BYTE		BEND    c_v-43
	BYTE	W01
	BYTE		VOL     30*sans_mvl/mxv
	BYTE		BEND    c_v-43
	BYTE	W01
	BYTE		VOL     29*sans_mvl/mxv
	BYTE		BEND    c_v-44
	BYTE	W01
	BYTE		VOL     27*sans_mvl/mxv
	BYTE		BEND    c_v-45
	BYTE	W01
	BYTE		VOL     26*sans_mvl/mxv
	BYTE		BEND    c_v-45
	BYTE	W01
	BYTE		VOL     25*sans_mvl/mxv
	BYTE		BEND    c_v-46
	BYTE	W01
	BYTE		VOL     24*sans_mvl/mxv
	BYTE		BEND    c_v-47
	BYTE	W01
	BYTE		VOL     23*sans_mvl/mxv
	BYTE		BEND    c_v-47
	BYTE	W01
	BYTE		VOL     22*sans_mvl/mxv
	BYTE		BEND    c_v-48
	BYTE	W01
	BYTE		VOL     21*sans_mvl/mxv
	BYTE		BEND    c_v-49
	BYTE	W01
	BYTE		VOL     20*sans_mvl/mxv
	BYTE		BEND    c_v-49
	BYTE	W01
	BYTE		VOL     19*sans_mvl/mxv
	BYTE		BEND    c_v-50
	BYTE	W01
	BYTE		VOL     18*sans_mvl/mxv
	BYTE		BEND    c_v-51
	BYTE	W01
	BYTE		VOL     17*sans_mvl/mxv
	BYTE		BEND    c_v-51
	BYTE	W01
	BYTE		VOL     16*sans_mvl/mxv
	BYTE		BEND    c_v-52
	BYTE	W01
	BYTE		VOL     15*sans_mvl/mxv
	BYTE		BEND    c_v-53
	BYTE	W01
	BYTE		VOL     14*sans_mvl/mxv
	BYTE		BEND    c_v-53
	BYTE	W01
	BYTE		VOL     13*sans_mvl/mxv
	BYTE		BEND    c_v-54
	BYTE	W01
	BYTE		VOL     12*sans_mvl/mxv
	BYTE		BEND    c_v-55
	BYTE	W01
	BYTE		VOL     11*sans_mvl/mxv
	BYTE		BEND    c_v-55
	BYTE	W01
	BYTE		VOL     10*sans_mvl/mxv
	BYTE		BEND    c_v-56
	BYTE	W01
	BYTE		VOL     9*sans_mvl/mxv
	BYTE		BEND    c_v-57
	BYTE	W01
	BYTE		VOL     8*sans_mvl/mxv
	BYTE		BEND    c_v-57
	BYTE	W01
	BYTE		VOL     7*sans_mvl/mxv
	BYTE		BEND    c_v-58
	BYTE	W01
	BYTE		VOL     6*sans_mvl/mxv
	BYTE		BEND    c_v-59
	BYTE	W01
	BYTE		VOL     4*sans_mvl/mxv
	BYTE		BEND    c_v-59
	BYTE	W01
	BYTE		VOL     3*sans_mvl/mxv
	BYTE		BEND    c_v-60
	BYTE	W01
	BYTE		VOL     2*sans_mvl/mxv
	BYTE		BEND    c_v-60
	BYTE	W01
	BYTE		VOL     1*sans_mvl/mxv
	BYTE		BEND    c_v-61
	BYTE	W01
	BYTE		VOL     0*sans_mvl/mxv
	BYTE		BEND    c_v-62
	BYTE	W01
	BYTE		        c_v-63
	BYTE	W01
	BYTE		        c_v-64
	BYTE	W01
	BYTE		        c_v-64
	BYTE	W01
	BYTE		EOT   
// 048   ----------------------------------------
	BYTE		VOL     125*sans_mvl/mxv
	BYTE		BEND    c_v+0
	BYTE		N72     As1 
	BYTE	W72
	BYTE		N24     Fn2 
	BYTE	W24
// 049   ----------------------------------------
	BYTE	PATT
	 POIN2	sans_8_041
// 050   ----------------------------------------
	BYTE		TIE     Fn2   v100
	BYTE	W96
// 051   ----------------------------------------
	BYTE		VOL     95*sans_mvl/mxv
	BYTE	W01
	BYTE		        94*sans_mvl/mxv
	BYTE	W01
	BYTE		        93*sans_mvl/mxv
	BYTE	W01
	BYTE		        92*sans_mvl/mxv
	BYTE	W01
	BYTE		        91*sans_mvl/mxv
	BYTE	W01
	BYTE		        90*sans_mvl/mxv
	BYTE	W01
	BYTE		        89*sans_mvl/mxv
	BYTE	W01
	BYTE		        88*sans_mvl/mxv
	BYTE	W01
	BYTE		        87*sans_mvl/mxv
	BYTE	W01
	BYTE		        86*sans_mvl/mxv
	BYTE	W01
	BYTE		        85*sans_mvl/mxv
	BYTE	W01
	BYTE		        84*sans_mvl/mxv
	BYTE	W01
	BYTE		        83*sans_mvl/mxv
	BYTE	W01
	BYTE		        82*sans_mvl/mxv
	BYTE	W01
	BYTE		        81*sans_mvl/mxv
	BYTE	W01
	BYTE		        80*sans_mvl/mxv
	BYTE	W01
	BYTE		        79*sans_mvl/mxv
	BYTE	W01
	BYTE		        78*sans_mvl/mxv
	BYTE	W01
	BYTE		        77*sans_mvl/mxv
	BYTE	W01
	BYTE		        76*sans_mvl/mxv
	BYTE	W01
	BYTE		        75*sans_mvl/mxv
	BYTE	W01
	BYTE		        74*sans_mvl/mxv
	BYTE	W01
	BYTE		        73*sans_mvl/mxv
	BYTE	W01
	BYTE		        72*sans_mvl/mxv
	BYTE	W01
	BYTE		        71*sans_mvl/mxv
	BYTE	W01
	BYTE		        70*sans_mvl/mxv
	BYTE	W01
	BYTE		        69*sans_mvl/mxv
	BYTE	W01
	BYTE		        68*sans_mvl/mxv
	BYTE	W01
	BYTE		        67*sans_mvl/mxv
	BYTE	W01
	BYTE		        66*sans_mvl/mxv
	BYTE	W01
	BYTE		        65*sans_mvl/mxv
	BYTE	W01
	BYTE		        64*sans_mvl/mxv
	BYTE	W01
	BYTE		        63*sans_mvl/mxv
	BYTE	W01
	BYTE		        62*sans_mvl/mxv
	BYTE	W01
	BYTE		        61*sans_mvl/mxv
	BYTE	W01
	BYTE		        60*sans_mvl/mxv
	BYTE	W01
	BYTE		        59*sans_mvl/mxv
	BYTE	W01
	BYTE		        58*sans_mvl/mxv
	BYTE	W01
	BYTE		        57*sans_mvl/mxv
	BYTE	W01
	BYTE		        56*sans_mvl/mxv
	BYTE	W01
	BYTE		        55*sans_mvl/mxv
	BYTE	W01
	BYTE		        54*sans_mvl/mxv
	BYTE	W01
	BYTE		        53*sans_mvl/mxv
	BYTE	W01
	BYTE		        52*sans_mvl/mxv
	BYTE	W01
	BYTE		        51*sans_mvl/mxv
	BYTE	W01
	BYTE		        50*sans_mvl/mxv
	BYTE	W01
	BYTE		        49*sans_mvl/mxv
	BYTE	W01
	BYTE		        48*sans_mvl/mxv
	BYTE	W01
	BYTE		        47*sans_mvl/mxv
	BYTE	W01
	BYTE		        46*sans_mvl/mxv
	BYTE	W01
	BYTE		        45*sans_mvl/mxv
	BYTE	W01
	BYTE		        44*sans_mvl/mxv
	BYTE	W01
	BYTE		        43*sans_mvl/mxv
	BYTE	W01
	BYTE		        42*sans_mvl/mxv
	BYTE	W01
	BYTE		        41*sans_mvl/mxv
	BYTE	W01
	BYTE		        40*sans_mvl/mxv
	BYTE	W01
	BYTE		        39*sans_mvl/mxv
	BYTE	W01
	BYTE		        38*sans_mvl/mxv
	BYTE	W01
	BYTE		        37*sans_mvl/mxv
	BYTE	W01
	BYTE		        36*sans_mvl/mxv
	BYTE	W01
	BYTE		        35*sans_mvl/mxv
	BYTE	W01
	BYTE		        34*sans_mvl/mxv
	BYTE	W01
	BYTE		        33*sans_mvl/mxv
	BYTE	W01
	BYTE		        32*sans_mvl/mxv
	BYTE	W01
	BYTE		        30*sans_mvl/mxv
	BYTE	W01
	BYTE		        29*sans_mvl/mxv
	BYTE	W01
	BYTE		        28*sans_mvl/mxv
	BYTE	W01
	BYTE		        27*sans_mvl/mxv
	BYTE	W01
	BYTE		        26*sans_mvl/mxv
	BYTE	W01
	BYTE		        25*sans_mvl/mxv
	BYTE	W01
	BYTE		        24*sans_mvl/mxv
	BYTE	W01
	BYTE		        23*sans_mvl/mxv
	BYTE	W01
	BYTE		        22*sans_mvl/mxv
	BYTE	W01
	BYTE		        21*sans_mvl/mxv
	BYTE	W01
	BYTE		        20*sans_mvl/mxv
	BYTE	W01
	BYTE		        19*sans_mvl/mxv
	BYTE	W01
	BYTE		        18*sans_mvl/mxv
	BYTE	W01
	BYTE		        17*sans_mvl/mxv
	BYTE	W01
	BYTE		        16*sans_mvl/mxv
	BYTE	W01
	BYTE		        15*sans_mvl/mxv
	BYTE	W01
	BYTE		        14*sans_mvl/mxv
	BYTE	W01
	BYTE		        13*sans_mvl/mxv
	BYTE	W01
	BYTE		        12*sans_mvl/mxv
	BYTE	W01
	BYTE		        11*sans_mvl/mxv
	BYTE	W01
	BYTE		        10*sans_mvl/mxv
	BYTE	W01
	BYTE		        9*sans_mvl/mxv
	BYTE	W01
	BYTE		        8*sans_mvl/mxv
	BYTE	W01
	BYTE		        7*sans_mvl/mxv
	BYTE	W01
	BYTE		        6*sans_mvl/mxv
	BYTE	W01
	BYTE		        5*sans_mvl/mxv
	BYTE	W01
	BYTE		        4*sans_mvl/mxv
	BYTE	W01
	BYTE		        3*sans_mvl/mxv
	BYTE	W01
	BYTE		        2*sans_mvl/mxv
	BYTE	W01
	BYTE		        1*sans_mvl/mxv
	BYTE	W01
	BYTE		        0*sans_mvl/mxv
	BYTE	W02
	BYTE		EOT   
// 052   ----------------------------------------
	BYTE		VOL     125*sans_mvl/mxv
	BYTE		N72     As1 
	BYTE	W72
	BYTE		N24     Fn2 
	BYTE	W24
// 053   ----------------------------------------
	BYTE	PATT
	 POIN2	sans_8_045
// 054   ----------------------------------------
	BYTE		TIE     Dn2   v100
	BYTE	W96
// 055   ----------------------------------------
	BYTE		VOL     96*sans_mvl/mxv
	BYTE		BEND    c_v-1
	BYTE	W01
	BYTE		VOL     95*sans_mvl/mxv
	BYTE		BEND    c_v-2
	BYTE	W01
	BYTE		VOL     94*sans_mvl/mxv
	BYTE		BEND    c_v-2
	BYTE	W01
	BYTE		VOL     93*sans_mvl/mxv
	BYTE		BEND    c_v-3
	BYTE	W01
	BYTE		VOL     92*sans_mvl/mxv
	BYTE		BEND    c_v-4
	BYTE	W01
	BYTE		VOL     91*sans_mvl/mxv
	BYTE		BEND    c_v-4
	BYTE	W01
	BYTE		VOL     90*sans_mvl/mxv
	BYTE		BEND    c_v-5
	BYTE	W01
	BYTE		VOL     89*sans_mvl/mxv
	BYTE		BEND    c_v-6
	BYTE	W01
	BYTE		VOL     88*sans_mvl/mxv
	BYTE		BEND    c_v-6
	BYTE	W01
	BYTE		VOL     87*sans_mvl/mxv
	BYTE		BEND    c_v-7
	BYTE	W01
	BYTE		VOL     86*sans_mvl/mxv
	BYTE		BEND    c_v-8
	BYTE	W01
	BYTE		VOL     85*sans_mvl/mxv
	BYTE		BEND    c_v-8
	BYTE	W01
	BYTE		VOL     84*sans_mvl/mxv
	BYTE		BEND    c_v-9
	BYTE	W01
	BYTE		VOL     83*sans_mvl/mxv
	BYTE		BEND    c_v-10
	BYTE	W01
	BYTE		VOL     82*sans_mvl/mxv
	BYTE		BEND    c_v-10
	BYTE	W01
	BYTE		VOL     81*sans_mvl/mxv
	BYTE		BEND    c_v-11
	BYTE	W01
	BYTE		VOL     80*sans_mvl/mxv
	BYTE		BEND    c_v-12
	BYTE	W01
	BYTE		VOL     79*sans_mvl/mxv
	BYTE		BEND    c_v-12
	BYTE	W01
	BYTE		VOL     78*sans_mvl/mxv
	BYTE		BEND    c_v-13
	BYTE	W01
	BYTE		VOL     77*sans_mvl/mxv
	BYTE		BEND    c_v-14
	BYTE	W01
	BYTE		VOL     76*sans_mvl/mxv
	BYTE		BEND    c_v-14
	BYTE	W01
	BYTE		VOL     75*sans_mvl/mxv
	BYTE		BEND    c_v-15
	BYTE	W01
	BYTE		VOL     74*sans_mvl/mxv
	BYTE		BEND    c_v-16
	BYTE	W01
	BYTE		VOL     73*sans_mvl/mxv
	BYTE		BEND    c_v-16
	BYTE	W01
	BYTE		VOL     72*sans_mvl/mxv
	BYTE		BEND    c_v-17
	BYTE	W01
	BYTE		VOL     71*sans_mvl/mxv
	BYTE		BEND    c_v-18
	BYTE	W01
	BYTE		VOL     70*sans_mvl/mxv
	BYTE		BEND    c_v-18
	BYTE	W01
	BYTE		VOL     69*sans_mvl/mxv
	BYTE		BEND    c_v-19
	BYTE	W01
	BYTE		VOL     68*sans_mvl/mxv
	BYTE		BEND    c_v-20
	BYTE	W01
	BYTE		VOL     67*sans_mvl/mxv
	BYTE		BEND    c_v-20
	BYTE	W01
	BYTE		VOL     65*sans_mvl/mxv
	BYTE		BEND    c_v-21
	BYTE	W01
	BYTE		VOL     64*sans_mvl/mxv
	BYTE		BEND    c_v-22
	BYTE	W01
	BYTE		VOL     63*sans_mvl/mxv
	BYTE		BEND    c_v-22
	BYTE	W01
	BYTE		VOL     62*sans_mvl/mxv
	BYTE		BEND    c_v-23
	BYTE	W01
	BYTE		VOL     61*sans_mvl/mxv
	BYTE		BEND    c_v-24
	BYTE	W01
	BYTE		VOL     60*sans_mvl/mxv
	BYTE		BEND    c_v-24
	BYTE	W01
	BYTE		VOL     59*sans_mvl/mxv
	BYTE		BEND    c_v-25
	BYTE	W01
	BYTE		VOL     58*sans_mvl/mxv
	BYTE		BEND    c_v-26
	BYTE	W01
	BYTE		VOL     57*sans_mvl/mxv
	BYTE		BEND    c_v-26
	BYTE	W01
	BYTE		VOL     56*sans_mvl/mxv
	BYTE		BEND    c_v-27
	BYTE	W01
	BYTE		VOL     55*sans_mvl/mxv
	BYTE		BEND    c_v-28
	BYTE	W01
	BYTE		VOL     54*sans_mvl/mxv
	BYTE		BEND    c_v-28
	BYTE	W01
	BYTE		VOL     53*sans_mvl/mxv
	BYTE		BEND    c_v-29
	BYTE	W01
	BYTE		VOL     52*sans_mvl/mxv
	BYTE		BEND    c_v-30
	BYTE	W01
	BYTE		VOL     51*sans_mvl/mxv
	BYTE		BEND    c_v-30
	BYTE	W01
	BYTE		VOL     50*sans_mvl/mxv
	BYTE		BEND    c_v-31
	BYTE	W01
	BYTE		VOL     49*sans_mvl/mxv
	BYTE		BEND    c_v-32
	BYTE	W01
	BYTE		VOL     48*sans_mvl/mxv
	BYTE		BEND    c_v-32
	BYTE	W01
	BYTE		VOL     47*sans_mvl/mxv
	BYTE		BEND    c_v-33
	BYTE	W01
	BYTE		VOL     46*sans_mvl/mxv
	BYTE		BEND    c_v-34
	BYTE	W01
	BYTE		VOL     45*sans_mvl/mxv
	BYTE		BEND    c_v-34
	BYTE	W01
	BYTE		VOL     44*sans_mvl/mxv
	BYTE		BEND    c_v-35
	BYTE	W01
	BYTE		VOL     43*sans_mvl/mxv
	BYTE		BEND    c_v-36
	BYTE	W01
	BYTE		VOL     42*sans_mvl/mxv
	BYTE		BEND    c_v-36
	BYTE	W01
	BYTE		VOL     41*sans_mvl/mxv
	BYTE		BEND    c_v-37
	BYTE	W01
	BYTE		VOL     40*sans_mvl/mxv
	BYTE		BEND    c_v-38
	BYTE	W01
	BYTE		VOL     39*sans_mvl/mxv
	BYTE		BEND    c_v-38
	BYTE	W01
	BYTE		VOL     38*sans_mvl/mxv
	BYTE		BEND    c_v-39
	BYTE	W01
	BYTE		VOL     37*sans_mvl/mxv
	BYTE		BEND    c_v-40
	BYTE	W01
	BYTE		VOL     36*sans_mvl/mxv
	BYTE		BEND    c_v-40
	BYTE	W01
	BYTE		VOL     35*sans_mvl/mxv
	BYTE		BEND    c_v-41
	BYTE	W01
	BYTE		VOL     34*sans_mvl/mxv
	BYTE		BEND    c_v-42
	BYTE	W01
	BYTE		VOL     33*sans_mvl/mxv
	BYTE		BEND    c_v-42
	BYTE	W01
	BYTE		VOL     32*sans_mvl/mxv
	BYTE		BEND    c_v-43
	BYTE	W01
	BYTE		VOL     31*sans_mvl/mxv
	BYTE		BEND    c_v-44
	BYTE	W01
	BYTE		VOL     30*sans_mvl/mxv
	BYTE		BEND    c_v-44
	BYTE	W01
	BYTE		VOL     29*sans_mvl/mxv
	BYTE		BEND    c_v-45
	BYTE	W01
	BYTE		VOL     28*sans_mvl/mxv
	BYTE		BEND    c_v-46
	BYTE	W01
	BYTE		VOL     27*sans_mvl/mxv
	BYTE		BEND    c_v-46
	BYTE	W01
	BYTE		VOL     26*sans_mvl/mxv
	BYTE		BEND    c_v-47
	BYTE	W01
	BYTE		VOL     25*sans_mvl/mxv
	BYTE		BEND    c_v-48
	BYTE	W01
	BYTE		VOL     24*sans_mvl/mxv
	BYTE		BEND    c_v-48
	BYTE	W01
	BYTE		VOL     23*sans_mvl/mxv
	BYTE		BEND    c_v-49
	BYTE	W01
	BYTE		VOL     22*sans_mvl/mxv
	BYTE		BEND    c_v-50
	BYTE	W01
	BYTE		VOL     21*sans_mvl/mxv
	BYTE		BEND    c_v-51
	BYTE	W01
	BYTE		VOL     20*sans_mvl/mxv
	BYTE		BEND    c_v-51
	BYTE	W01
	BYTE		VOL     19*sans_mvl/mxv
	BYTE		BEND    c_v-52
	BYTE	W01
	BYTE		VOL     18*sans_mvl/mxv
	BYTE		BEND    c_v-52
	BYTE	W01
	BYTE		VOL     17*sans_mvl/mxv
	BYTE		BEND    c_v-53
	BYTE	W01
	BYTE		VOL     16*sans_mvl/mxv
	BYTE		BEND    c_v-54
	BYTE	W01
	BYTE		VOL     15*sans_mvl/mxv
	BYTE		BEND    c_v-55
	BYTE	W01
	BYTE		VOL     14*sans_mvl/mxv
	BYTE		BEND    c_v-55
	BYTE	W01
	BYTE		VOL     13*sans_mvl/mxv
	BYTE		BEND    c_v-56
	BYTE	W01
	BYTE		VOL     12*sans_mvl/mxv
	BYTE		BEND    c_v-57
	BYTE	W01
	BYTE		VOL     11*sans_mvl/mxv
	BYTE		BEND    c_v-57
	BYTE	W01
	BYTE		VOL     10*sans_mvl/mxv
	BYTE		BEND    c_v-58
	BYTE	W01
	BYTE		VOL     9*sans_mvl/mxv
	BYTE		BEND    c_v-59
	BYTE	W01
	BYTE		VOL     8*sans_mvl/mxv
	BYTE		BEND    c_v-59
	BYTE	W01
	BYTE		VOL     7*sans_mvl/mxv
	BYTE		BEND    c_v-60
	BYTE	W01
	BYTE		VOL     6*sans_mvl/mxv
	BYTE		BEND    c_v-61
	BYTE	W01
	BYTE		VOL     5*sans_mvl/mxv
	BYTE		BEND    c_v-61
	BYTE	W01
	BYTE		VOL     4*sans_mvl/mxv
	BYTE		BEND    c_v-62
	BYTE	W01
	BYTE		VOL     3*sans_mvl/mxv
	BYTE		BEND    c_v-63
	BYTE	W01
	BYTE		VOL     2*sans_mvl/mxv
	BYTE		BEND    c_v-63
	BYTE	W01
	BYTE		VOL     1*sans_mvl/mxv
	BYTE		BEND    c_v-64
	BYTE	W01
	BYTE		VOL     0*sans_mvl/mxv
	BYTE		BEND    c_v-64
	BYTE	W01
	BYTE		EOT   
// 056   ----------------------------------------
	BYTE		BEND    c_v+0
	BYTE	W96
// 057   ----------------------------------------
	BYTE	W96
// 058   ----------------------------------------
	BYTE	W96
// 059   ----------------------------------------
	BYTE	W96
// 060   ----------------------------------------
	BYTE	W96
// 061   ----------------------------------------
	BYTE	W96
// 062   ----------------------------------------
	BYTE	W96
// 063   ----------------------------------------
	BYTE	W96
// 064   ----------------------------------------
	BYTE	W96
// 065   ----------------------------------------
	BYTE	W96
// 066   ----------------------------------------
	BYTE	W96
// 067   ----------------------------------------
	BYTE	W96
// 068   ----------------------------------------
	BYTE	W96
// 069   ----------------------------------------
	BYTE	W96
// 070   ----------------------------------------
	BYTE	W96
// 071   ----------------------------------------
	BYTE	W96
// 072   ----------------------------------------
	BYTE	W96
// 073   ----------------------------------------
	BYTE	W96
// 074   ----------------------------------------
	BYTE	W96
// 075   ----------------------------------------
	BYTE	W96
// 076   ----------------------------------------
	BYTE	W96
// 077   ----------------------------------------
	BYTE	W96
	BYTE	GoTo
	 POIN2	sans_8_B1
sans_8_B2:
// 078   ----------------------------------------
	BYTE		VOICE   52
	BYTE		BEND    c_v+0
	BYTE	FINE

//**************** Track 9 (Midi-Chn.11) ****************//

sans_9:
	BYTE	KEYSH   sans_key+0
sans_9_B1:
// 000   ----------------------------------------
	BYTE		VOICE   59
	BYTE		PAN     c_v+11
	BYTE		VOL     100*sans_mvl/mxv
	BYTE		PAN     c_v+11
	BYTE		VOL     74*sans_mvl/mxv
	BYTE		BEND    c_v+0
	BYTE	W96
// 001   ----------------------------------------
	BYTE	W96
// 002   ----------------------------------------
	BYTE	W96
// 003   ----------------------------------------
	BYTE	W96
// 004   ----------------------------------------
	BYTE	W96
// 005   ----------------------------------------
	BYTE	W96
// 006   ----------------------------------------
	BYTE	W96
// 007   ----------------------------------------
	BYTE	W96
// 008   ----------------------------------------
	BYTE	W96
// 009   ----------------------------------------
	BYTE	W96
// 010   ----------------------------------------
	BYTE	W96
// 011   ----------------------------------------
	BYTE	W96
// 012   ----------------------------------------
	BYTE	W96
// 013   ----------------------------------------
	BYTE	W96
// 014   ----------------------------------------
	BYTE	W96
// 015   ----------------------------------------
	BYTE	W96
// 016   ----------------------------------------
	BYTE	W96
// 017   ----------------------------------------
	BYTE	W96
// 018   ----------------------------------------
	BYTE	W96
// 019   ----------------------------------------
	BYTE	W96
// 020   ----------------------------------------
	BYTE		N04     Fn4   v100
	BYTE	W10
	BYTE		N04   
	BYTE	W08
	BYTE		N04   
	BYTE	W12
	BYTE		N04   
	BYTE	W12
	BYTE		N04   
	BYTE	W12
	BYTE		        Dn4 
	BYTE	W12
	BYTE		N24   
	BYTE	W30
// 021   ----------------------------------------
	BYTE		N04     Fn4 
	BYTE	W12
	BYTE		N04   
	BYTE	W06
	BYTE		N04   
	BYTE	W12
	BYTE		N04   
	BYTE	W12
	BYTE		        Dn4 
	BYTE	W12
	BYTE		        Fn4 
	BYTE	W12
	BYTE		        An4 
	BYTE	W12
	BYTE		        Fn4 
	BYTE	W06
	BYTE		N12     Dn4 
	BYTE	W12
// 022   ----------------------------------------
	BYTE		N04     Dn5 
	BYTE	W06
	BYTE		        An4 
	BYTE	W06
	BYTE		        Dn4 
	BYTE	W06
	BYTE		        En4 
	BYTE	W06
	BYTE		        Gn4 
	BYTE	W06
	BYTE		        Dn4 
	BYTE	W06
	BYTE		        Bn3 
	BYTE	W06
	BYTE		        Dn4 
	BYTE	W06
	BYTE		        Fn4 
	BYTE	W06
	BYTE		        Dn4 
	BYTE	W06
	BYTE		        Bn3 
	BYTE	W06
	BYTE		        Dn4 
	BYTE	W06
	BYTE		        Bn3 
	BYTE	W06
	BYTE		        Gn3 
	BYTE	W06
	BYTE		        Fn3 
	BYTE	W06
	BYTE		        Gn3 
	BYTE	W06
// 023   ----------------------------------------
	BYTE		        Fn3 
	BYTE	W12
	BYTE		        Gn3 
	BYTE	W06
	BYTE		        As3 
	BYTE	W13
	BYTE		        Cn4 
	BYTE	W11
	BYTE		N48     Gn4 
	BYTE	W54
// 024   ----------------------------------------
	BYTE	W96
// 025   ----------------------------------------
	BYTE	W96
// 026   ----------------------------------------
	BYTE	W96
// 027   ----------------------------------------
	BYTE	W96
// 028   ----------------------------------------
	BYTE	W96
// 029   ----------------------------------------
	BYTE	W96
// 030   ----------------------------------------
	BYTE	W96
// 031   ----------------------------------------
	BYTE	W96
// 032   ----------------------------------------
	BYTE	W96
// 033   ----------------------------------------
	BYTE	W96
// 034   ----------------------------------------
	BYTE	W96
// 035   ----------------------------------------
	BYTE	W96
// 036   ----------------------------------------
	BYTE	W96
// 037   ----------------------------------------
	BYTE	W96
// 038   ----------------------------------------
	BYTE	W96
// 039   ----------------------------------------
	BYTE	W96
// 040   ----------------------------------------
	BYTE	W96
// 041   ----------------------------------------
	BYTE	W96
// 042   ----------------------------------------
	BYTE	W96
// 043   ----------------------------------------
	BYTE	W96
// 044   ----------------------------------------
	BYTE	W96
// 045   ----------------------------------------
	BYTE	W96
// 046   ----------------------------------------
	BYTE	W96
// 047   ----------------------------------------
	BYTE	W96
// 048   ----------------------------------------
	BYTE	W96
// 049   ----------------------------------------
	BYTE	W96
// 050   ----------------------------------------
	BYTE	W96
// 051   ----------------------------------------
	BYTE	W06
	BYTE		N03     An3 
	BYTE	W06
	BYTE		        Fn4 
	BYTE	W06
	BYTE		        En4 
	BYTE	W06
	BYTE		        Gn4 
	BYTE	W12
	BYTE		        Fn4 
	BYTE	W12
	BYTE		        Dn4 
	BYTE	W06
	BYTE		        Cn4 
	BYTE	W12
	BYTE		N12     An3 
	BYTE	W12
	BYTE		N03     Gn3 
	BYTE	W06
	BYTE		        An3 
	BYTE	W06
	BYTE		        Cn4 
	BYTE	W06
// 052   ----------------------------------------
	BYTE	W96
// 053   ----------------------------------------
	BYTE	W96
// 054   ----------------------------------------
	BYTE	W96
// 055   ----------------------------------------
	BYTE	W96
// 056   ----------------------------------------
	BYTE	W96
// 057   ----------------------------------------
	BYTE	W96
// 058   ----------------------------------------
	BYTE	W96
// 059   ----------------------------------------
	BYTE	W96
// 060   ----------------------------------------
	BYTE	W96
// 061   ----------------------------------------
	BYTE	W96
// 062   ----------------------------------------
	BYTE	W96
// 063   ----------------------------------------
	BYTE	W96
// 064   ----------------------------------------
	BYTE	W96
// 065   ----------------------------------------
	BYTE	W96
// 066   ----------------------------------------
	BYTE	W96
// 067   ----------------------------------------
	BYTE	W96
// 068   ----------------------------------------
	BYTE	W96
// 069   ----------------------------------------
	BYTE	W96
// 070   ----------------------------------------
	BYTE	W96
// 071   ----------------------------------------
	BYTE	W96
// 072   ----------------------------------------
	BYTE	W96
// 073   ----------------------------------------
	BYTE	W96
// 074   ----------------------------------------
	BYTE	W96
// 075   ----------------------------------------
	BYTE	W96
// 076   ----------------------------------------
	BYTE	W96
// 077   ----------------------------------------
	BYTE	W96
	BYTE	GoTo
	 POIN2	sans_9_B1
sans_9_B2:
// 078   ----------------------------------------
	BYTE		BEND    c_v+0
	BYTE	FINE

//**************** Track 10 (Midi-Chn.12) ****************//

sans_10:
	BYTE	KEYSH   sans_key+0
sans_10_B1:
// 000   ----------------------------------------
	BYTE		VOICE   55
	BYTE		PAN     c_v-11
	BYTE		VOL     100*sans_mvl/mxv
	BYTE		BEND    c_v+0
	BYTE	W96
// 001   ----------------------------------------
	BYTE	W96
// 002   ----------------------------------------
	BYTE	W96
// 003   ----------------------------------------
	BYTE	W96
// 004   ----------------------------------------
	BYTE	W96
// 005   ----------------------------------------
	BYTE	W96
// 006   ----------------------------------------
	BYTE	W96
// 007   ----------------------------------------
	BYTE	W96
// 008   ----------------------------------------
	BYTE	W96
// 009   ----------------------------------------
	BYTE	W96
// 010   ----------------------------------------
	BYTE	W96
// 011   ----------------------------------------
	BYTE	W96
// 012   ----------------------------------------
	BYTE	W96
// 013   ----------------------------------------
	BYTE	W96
// 014   ----------------------------------------
	BYTE	W96
// 015   ----------------------------------------
	BYTE	W96
// 016   ----------------------------------------
	BYTE	W96
// 017   ----------------------------------------
	BYTE	W96
// 018   ----------------------------------------
	BYTE	W96
// 019   ----------------------------------------
	BYTE	W96
// 020   ----------------------------------------
	BYTE	W96
// 021   ----------------------------------------
	BYTE	W96
// 022   ----------------------------------------
	BYTE	W96
// 023   ----------------------------------------
	BYTE	W96
// 024   ----------------------------------------
	BYTE	W96
// 025   ----------------------------------------
	BYTE	W96
// 026   ----------------------------------------
	BYTE	W96
// 027   ----------------------------------------
	BYTE	W96
// 028   ----------------------------------------
	BYTE	W96
// 029   ----------------------------------------
	BYTE	W96
// 030   ----------------------------------------
	BYTE	W96
// 031   ----------------------------------------
	BYTE	W96
// 032   ----------------------------------------
	BYTE	W96
// 033   ----------------------------------------
	BYTE	W96
// 034   ----------------------------------------
	BYTE	W96
// 035   ----------------------------------------
	BYTE	W96
// 036   ----------------------------------------
	BYTE	W96
// 037   ----------------------------------------
	BYTE	W96
// 038   ----------------------------------------
	BYTE	W96
// 039   ----------------------------------------
	BYTE	W96
// 040   ----------------------------------------
	BYTE	W96
// 041   ----------------------------------------
	BYTE	W96
// 042   ----------------------------------------
	BYTE	W96
// 043   ----------------------------------------
	BYTE	W96
// 044   ----------------------------------------
	BYTE	W96
// 045   ----------------------------------------
	BYTE	W96
// 046   ----------------------------------------
	BYTE	W96
// 047   ----------------------------------------
	BYTE	W96
// 048   ----------------------------------------
	BYTE	W96
// 049   ----------------------------------------
	BYTE	W96
// 050   ----------------------------------------
	BYTE	W96
// 051   ----------------------------------------
	BYTE	W96
// 052   ----------------------------------------
	BYTE	W96
// 053   ----------------------------------------
	BYTE	W96
// 054   ----------------------------------------
sans_10_054:
	BYTE	W12
	BYTE		N06     Fn3   v100
	BYTE	W12
	BYTE		        En3 
	BYTE	W18
	BYTE		        Cn3 
	BYTE	W12
	BYTE		        En3 
	BYTE	W11
	BYTE		        Dn3 
	BYTE	W13
	BYTE		        An2 
	BYTE	W06
	BYTE		        Cn3 
	BYTE	W06
	BYTE		        Dn3 
	BYTE	W06
	BYTE	PEND
// 055   ----------------------------------------
	BYTE	PATT
	 POIN2	sans_10_054
// 056   ----------------------------------------
	BYTE	W96
// 057   ----------------------------------------
	BYTE	W96
// 058   ----------------------------------------
	BYTE	W96
// 059   ----------------------------------------
	BYTE	W96
// 060   ----------------------------------------
	BYTE	W96
// 061   ----------------------------------------
	BYTE	W96
// 062   ----------------------------------------
	BYTE	W96
// 063   ----------------------------------------
	BYTE	W96
// 064   ----------------------------------------
	BYTE	W96
// 065   ----------------------------------------
	BYTE	W96
// 066   ----------------------------------------
	BYTE	W96
// 067   ----------------------------------------
	BYTE	W96
// 068   ----------------------------------------
	BYTE	W96
// 069   ----------------------------------------
	BYTE	W96
// 070   ----------------------------------------
	BYTE	W96
// 071   ----------------------------------------
	BYTE	W96
// 072   ----------------------------------------
	BYTE	W96
// 073   ----------------------------------------
	BYTE	W96
// 074   ----------------------------------------
	BYTE	W96
// 075   ----------------------------------------
	BYTE	W96
// 076   ----------------------------------------
	BYTE	W96
// 077   ----------------------------------------
	BYTE	W96
	BYTE	GoTo
	 POIN2	sans_10_B1
sans_10_B2:
// 078   ----------------------------------------
	BYTE		VOICE   55
	BYTE		BEND    c_v+0
	BYTE	FINE

//**************** Track 11 (Midi-Chn.13) ****************//

sans_11:
	BYTE	KEYSH   sans_key+0
sans_11_B1:
// 000   ----------------------------------------
	BYTE		VOICE   80
	BYTE		PAN     c_v-12
	BYTE		VOL     96*sans_mvl/mxv
	BYTE		BEND    c_v+0
	BYTE	W96
// 001   ----------------------------------------
	BYTE	W96
// 002   ----------------------------------------
	BYTE	W96
// 003   ----------------------------------------
	BYTE	W96
// 004   ----------------------------------------
	BYTE	W96
// 005   ----------------------------------------
	BYTE	W96
// 006   ----------------------------------------
	BYTE	W96
// 007   ----------------------------------------
	BYTE	W96
// 008   ----------------------------------------
	BYTE	W96
// 009   ----------------------------------------
	BYTE	W96
// 010   ----------------------------------------
	BYTE	W96
// 011   ----------------------------------------
	BYTE	W96
// 012   ----------------------------------------
	BYTE	W96
// 013   ----------------------------------------
	BYTE	W96
// 014   ----------------------------------------
	BYTE	W96
// 015   ----------------------------------------
	BYTE	W96
// 016   ----------------------------------------
	BYTE	W96
// 017   ----------------------------------------
	BYTE	W96
// 018   ----------------------------------------
	BYTE	W96
// 019   ----------------------------------------
	BYTE	W72
	BYTE		        c_v+1
	BYTE		N24     Fn4   v100
	BYTE	W01
	BYTE		BEND    c_v+3
	BYTE	W01
	BYTE		        c_v+5
	BYTE	W01
	BYTE		        c_v+8
	BYTE	W01
	BYTE		        c_v+10
	BYTE	W01
	BYTE		        c_v+10
	BYTE	W19
// 020   ----------------------------------------
	BYTE		        c_v+0
	BYTE	W96
// 021   ----------------------------------------
	BYTE	W96
// 022   ----------------------------------------
	BYTE	W96
// 023   ----------------------------------------
	BYTE	W96
// 024   ----------------------------------------
	BYTE	W96
// 025   ----------------------------------------
	BYTE	W96
// 026   ----------------------------------------
	BYTE	W96
// 027   ----------------------------------------
	BYTE	W96
// 028   ----------------------------------------
	BYTE	W96
// 029   ----------------------------------------
	BYTE	W96
// 030   ----------------------------------------
	BYTE	W96
// 031   ----------------------------------------
	BYTE	W96
// 032   ----------------------------------------
	BYTE	W96
// 033   ----------------------------------------
	BYTE	W96
// 034   ----------------------------------------
	BYTE	W96
// 035   ----------------------------------------
	BYTE	W96
// 036   ----------------------------------------
	BYTE	W96
// 037   ----------------------------------------
	BYTE	W96
// 038   ----------------------------------------
	BYTE	W96
// 039   ----------------------------------------
	BYTE	W96
// 040   ----------------------------------------
	BYTE	W96
// 041   ----------------------------------------
	BYTE	W96
// 042   ----------------------------------------
	BYTE	W96
// 043   ----------------------------------------
	BYTE	W96
// 044   ----------------------------------------
	BYTE	W96
// 045   ----------------------------------------
	BYTE	W96
// 046   ----------------------------------------
	BYTE	W96
// 047   ----------------------------------------
	BYTE	W96
// 048   ----------------------------------------
	BYTE	W96
// 049   ----------------------------------------
	BYTE	W96
// 050   ----------------------------------------
	BYTE	W96
// 051   ----------------------------------------
	BYTE	W96
// 052   ----------------------------------------
	BYTE	W96
// 053   ----------------------------------------
	BYTE	W96
// 054   ----------------------------------------
	BYTE	W96
// 055   ----------------------------------------
	BYTE	W96
// 056   ----------------------------------------
	BYTE	W96
// 057   ----------------------------------------
	BYTE	W96
// 058   ----------------------------------------
	BYTE	W96
// 059   ----------------------------------------
	BYTE	W96
// 060   ----------------------------------------
	BYTE	W96
// 061   ----------------------------------------
	BYTE	W96
// 062   ----------------------------------------
	BYTE	W96
// 063   ----------------------------------------
	BYTE	W96
// 064   ----------------------------------------
	BYTE	W96
// 065   ----------------------------------------
	BYTE	W96
// 066   ----------------------------------------
	BYTE	W96
// 067   ----------------------------------------
	BYTE	W96
// 068   ----------------------------------------
	BYTE	W96
// 069   ----------------------------------------
	BYTE	W96
// 070   ----------------------------------------
	BYTE	W96
// 071   ----------------------------------------
	BYTE	W96
// 072   ----------------------------------------
	BYTE	W96
// 073   ----------------------------------------
	BYTE	W96
// 074   ----------------------------------------
	BYTE	W96
// 075   ----------------------------------------
	BYTE	W96
// 076   ----------------------------------------
	BYTE	W96
// 077   ----------------------------------------
	BYTE	W96
	BYTE	GoTo
	 POIN2	sans_11_B1
sans_11_B2:
// 078   ----------------------------------------
	BYTE		VOICE   80
	BYTE		BEND    c_v+0
	BYTE	FINE

//**************** Track 12 (Midi-Chn.14) ****************//

sans_12:
	BYTE	KEYSH   sans_key+0
sans_12_B1:
// 000   ----------------------------------------
	BYTE		VOICE   30
	BYTE		PAN     c_v+13
	BYTE		VOL     100*sans_mvl/mxv
	BYTE		BEND    c_v+0
	BYTE	W96
// 001   ----------------------------------------
	BYTE	W96
// 002   ----------------------------------------
	BYTE	W96
// 003   ----------------------------------------
	BYTE	W96
// 004   ----------------------------------------
	BYTE	W96
// 005   ----------------------------------------
	BYTE	W96
// 006   ----------------------------------------
	BYTE	W96
// 007   ----------------------------------------
	BYTE	W96
// 008   ----------------------------------------
sans_12_008:
	BYTE		N06     Dn1   v100
	BYTE	W12
	BYTE		N06   
	BYTE	W12
	BYTE		N06   
	BYTE	W06
	BYTE		N06   
	BYTE	W12
	BYTE		N06   
	BYTE	W12
	BYTE		N06   
	BYTE	W12
	BYTE		N06   
	BYTE	W06
	BYTE		N06   
	BYTE	W06
	BYTE		N06   
	BYTE	W06
	BYTE		N06   
	BYTE	W06
	BYTE		N06   
	BYTE	W06
	BYTE	PEND
// 009   ----------------------------------------
sans_12_009:
	BYTE		N06     Cn1   v100
	BYTE	W12
	BYTE		N06   
	BYTE	W12
	BYTE		N06   
	BYTE	W06
	BYTE		N06   
	BYTE	W12
	BYTE		N06   
	BYTE	W12
	BYTE		N06   
	BYTE	W12
	BYTE		N06   
	BYTE	W06
	BYTE		N06   
	BYTE	W06
	BYTE		N06   
	BYTE	W06
	BYTE		N06   
	BYTE	W06
	BYTE		N06   
	BYTE	W06
	BYTE	PEND
// 010   ----------------------------------------
sans_12_010:
	BYTE		N06     Bn0   v100
	BYTE	W12
	BYTE		N06   
	BYTE	W12
	BYTE		N06   
	BYTE	W06
	BYTE		N06   
	BYTE	W12
	BYTE		N06   
	BYTE	W12
	BYTE		N06   
	BYTE	W12
	BYTE		N06   
	BYTE	W06
	BYTE		N06   
	BYTE	W06
	BYTE		N06   
	BYTE	W06
	BYTE		N06   
	BYTE	W06
	BYTE		N06   
	BYTE	W06
	BYTE	PEND
// 011   ----------------------------------------
sans_12_011:
	BYTE		N06     As0   v100
	BYTE	W12
	BYTE		N06   
	BYTE	W12
	BYTE		N06   
	BYTE	W06
	BYTE		N06   
	BYTE	W12
	BYTE		N06   
	BYTE	W12
	BYTE		        Cn1 
	BYTE	W12
	BYTE		N06   
	BYTE	W06
	BYTE		N06   
	BYTE	W06
	BYTE		N06   
	BYTE	W06
	BYTE		N06   
	BYTE	W06
	BYTE		N06   
	BYTE	W06
	BYTE	PEND
// 012   ----------------------------------------
	BYTE	PATT
	 POIN2	sans_12_008
// 013   ----------------------------------------
	BYTE	PATT
	 POIN2	sans_12_009
// 014   ----------------------------------------
	BYTE	PATT
	 POIN2	sans_12_010
// 015   ----------------------------------------
	BYTE	PATT
	 POIN2	sans_12_011
// 016   ----------------------------------------
	BYTE	PATT
	 POIN2	sans_12_008
// 017   ----------------------------------------
	BYTE	PATT
	 POIN2	sans_12_009
// 018   ----------------------------------------
	BYTE	PATT
	 POIN2	sans_12_010
// 019   ----------------------------------------
	BYTE	PATT
	 POIN2	sans_12_011
// 020   ----------------------------------------
	BYTE	PATT
	 POIN2	sans_12_008
// 021   ----------------------------------------
	BYTE	PATT
	 POIN2	sans_12_009
// 022   ----------------------------------------
	BYTE	PATT
	 POIN2	sans_12_010
// 023   ----------------------------------------
	BYTE	PATT
	 POIN2	sans_12_011
// 024   ----------------------------------------
sans_12_024:
	BYTE		N06     As0   v100
	BYTE	W12
	BYTE		N06   
	BYTE	W12
	BYTE		N06   
	BYTE	W06
	BYTE		N06   
	BYTE	W12
	BYTE		N06   
	BYTE	W12
	BYTE		N06   
	BYTE	W12
	BYTE		N06   
	BYTE	W06
	BYTE		N06   
	BYTE	W06
	BYTE		N06   
	BYTE	W06
	BYTE		N06   
	BYTE	W06
	BYTE		N06   
	BYTE	W06
	BYTE	PEND
// 025   ----------------------------------------
	BYTE	PATT
	 POIN2	sans_12_009
// 026   ----------------------------------------
	BYTE	PATT
	 POIN2	sans_12_008
// 027   ----------------------------------------
sans_12_027:
	BYTE		N06     Cs1   v100
	BYTE	W12
	BYTE		N06   
	BYTE	W12
	BYTE		N06   
	BYTE	W06
	BYTE		N06   
	BYTE	W12
	BYTE		N06   
	BYTE	W12
	BYTE		        Ds1 
	BYTE	W12
	BYTE		N06   
	BYTE	W06
	BYTE		N06   
	BYTE	W06
	BYTE		N06   
	BYTE	W06
	BYTE		N06   
	BYTE	W06
	BYTE		N06   
	BYTE	W06
	BYTE	PEND
// 028   ----------------------------------------
	BYTE	PATT
	 POIN2	sans_12_024
// 029   ----------------------------------------
	BYTE	PATT
	 POIN2	sans_12_009
// 030   ----------------------------------------
	BYTE	PATT
	 POIN2	sans_12_008
// 031   ----------------------------------------
	BYTE	PATT
	 POIN2	sans_12_027
// 032   ----------------------------------------
	BYTE	PATT
	 POIN2	sans_12_024
// 033   ----------------------------------------
	BYTE	PATT
	 POIN2	sans_12_009
// 034   ----------------------------------------
	BYTE	PATT
	 POIN2	sans_12_008
// 035   ----------------------------------------
	BYTE	PATT
	 POIN2	sans_12_027
// 036   ----------------------------------------
	BYTE	PATT
	 POIN2	sans_12_024
// 037   ----------------------------------------
	BYTE	PATT
	 POIN2	sans_12_009
// 038   ----------------------------------------
	BYTE	PATT
	 POIN2	sans_12_008
// 039   ----------------------------------------
	BYTE	PATT
	 POIN2	sans_12_027
// 040   ----------------------------------------
	BYTE	PATT
	 POIN2	sans_12_024
// 041   ----------------------------------------
	BYTE	PATT
	 POIN2	sans_12_009
// 042   ----------------------------------------
	BYTE	PATT
	 POIN2	sans_12_010
// 043   ----------------------------------------
	BYTE	PATT
	 POIN2	sans_12_010
// 044   ----------------------------------------
	BYTE	PATT
	 POIN2	sans_12_024
// 045   ----------------------------------------
	BYTE	PATT
	 POIN2	sans_12_009
// 046   ----------------------------------------
	BYTE	PATT
	 POIN2	sans_12_008
// 047   ----------------------------------------
	BYTE	PATT
	 POIN2	sans_12_008
// 048   ----------------------------------------
	BYTE	PATT
	 POIN2	sans_12_024
// 049   ----------------------------------------
	BYTE	PATT
	 POIN2	sans_12_009
// 050   ----------------------------------------
	BYTE	PATT
	 POIN2	sans_12_010
// 051   ----------------------------------------
	BYTE	PATT
	 POIN2	sans_12_010
// 052   ----------------------------------------
	BYTE	PATT
	 POIN2	sans_12_024
// 053   ----------------------------------------
	BYTE	PATT
	 POIN2	sans_12_009
// 054   ----------------------------------------
	BYTE	PATT
	 POIN2	sans_12_008
// 055   ----------------------------------------
	BYTE	PATT
	 POIN2	sans_12_008
// 056   ----------------------------------------
	BYTE	W96
// 057   ----------------------------------------
	BYTE	W96
// 058   ----------------------------------------
	BYTE	W96
// 059   ----------------------------------------
	BYTE	W96
// 060   ----------------------------------------
	BYTE	W96
// 061   ----------------------------------------
	BYTE	W96
// 062   ----------------------------------------
	BYTE	W96
// 063   ----------------------------------------
	BYTE	W96
// 064   ----------------------------------------
	BYTE	W96
// 065   ----------------------------------------
	BYTE	W96
// 066   ----------------------------------------
	BYTE	W96
// 067   ----------------------------------------
	BYTE	W96
// 068   ----------------------------------------
	BYTE	W96
// 069   ----------------------------------------
	BYTE	W96
// 070   ----------------------------------------
	BYTE	W96
// 071   ----------------------------------------
	BYTE	W96
// 072   ----------------------------------------
	BYTE	W96
// 073   ----------------------------------------
	BYTE	W96
// 074   ----------------------------------------
	BYTE	W96
// 075   ----------------------------------------
	BYTE	W96
// 076   ----------------------------------------
	BYTE	W96
// 077   ----------------------------------------
	BYTE	W96
	BYTE	GoTo
	 POIN2	sans_12_B1
sans_12_B2:
// 078   ----------------------------------------
	BYTE		VOICE   30
	BYTE		BEND    c_v+0
	BYTE	FINE

//**************** Track 13 (Midi-Chn.15) ****************//

sans_13:
	BYTE	KEYSH   sans_key+0
sans_13_B1:
// 000   ----------------------------------------
	BYTE		VOICE   123
	BYTE		PAN     c_v-9
	BYTE		VOL     107*sans_mvl/mxv
	BYTE		BEND    c_v+0
	BYTE	W96
// 001   ----------------------------------------
	BYTE	W96
// 002   ----------------------------------------
	BYTE	W96
// 003   ----------------------------------------
	BYTE	W96
// 004   ----------------------------------------
	BYTE	W96
// 005   ----------------------------------------
	BYTE	W96
// 006   ----------------------------------------
	BYTE	W96
// 007   ----------------------------------------
	BYTE	W96
// 008   ----------------------------------------
	BYTE		N06     Cn1   v100
	BYTE		N06     Gs1 
	BYTE		N24     Cs2 
	BYTE		N24     Gn2 
	BYTE	W12
	BYTE		N06     Dn1 
	BYTE	W12
	BYTE		        Cn1 
	BYTE		N06     Gs1 
	BYTE	W06
	BYTE		        Cn1 
	BYTE	W06
	BYTE		        Dn1 
	BYTE	W12
	BYTE		        Cn1 
	BYTE		N06     Gs1 
	BYTE	W06
	BYTE		        Cn1 
	BYTE	W06
	BYTE		        Dn1 
	BYTE	W06
	BYTE		        Cn1 
	BYTE	W06
	BYTE		N06   
	BYTE		N06     Gs1 
	BYTE	W12
	BYTE		        Dn1 
	BYTE	W12
// 009   ----------------------------------------
sans_13_009:
	BYTE		N06     Cn1   v100
	BYTE		N06     Gs1 
	BYTE	W12
	BYTE		        Dn1 
	BYTE	W12
	BYTE		        Cn1 
	BYTE		N06     Gs1 
	BYTE	W06
	BYTE		        Cn1 
	BYTE	W06
	BYTE		        Dn1 
	BYTE	W12
	BYTE		        Cn1 
	BYTE		N06     Gs1 
	BYTE	W06
	BYTE		        Cn1 
	BYTE	W06
	BYTE		        Dn1 
	BYTE	W06
	BYTE		        Cn1 
	BYTE	W06
	BYTE		N06   
	BYTE		N06     Gs1 
	BYTE	W12
	BYTE		        Dn1 
	BYTE	W12
	BYTE	PEND
// 010   ----------------------------------------
	BYTE	PATT
	 POIN2	sans_13_009
// 011   ----------------------------------------
sans_13_011:
	BYTE		N06     Cn1   v100
	BYTE		N06     Gs1 
	BYTE	W12
	BYTE		        Dn1 
	BYTE	W12
	BYTE		        Cn1 
	BYTE		N06     Gs1 
	BYTE	W06
	BYTE		        Cn1 
	BYTE	W06
	BYTE		        Dn1 
	BYTE	W12
	BYTE		N06   
	BYTE		N12     Cs2 
	BYTE	W06
	BYTE		N06     Cn1 
	BYTE	W12
	BYTE		        Dn1 
	BYTE		N12     Cs2 
	BYTE	W06
	BYTE		N06     Cn1 
	BYTE	W12
	BYTE		N06   
	BYTE		N06     Dn1 
	BYTE		N12     Cs2 
	BYTE	W06
	BYTE		N06     Cn1 
	BYTE		N06     Dn1 
	BYTE	W06
	BYTE	PEND
// 012   ----------------------------------------
	BYTE	PATT
	 POIN2	sans_13_009
// 013   ----------------------------------------
	BYTE	PATT
	 POIN2	sans_13_009
// 014   ----------------------------------------
	BYTE	PATT
	 POIN2	sans_13_009
// 015   ----------------------------------------
	BYTE	PATT
	 POIN2	sans_13_011
// 016   ----------------------------------------
	BYTE	PATT
	 POIN2	sans_13_009
// 017   ----------------------------------------
	BYTE	PATT
	 POIN2	sans_13_009
// 018   ----------------------------------------
	BYTE	PATT
	 POIN2	sans_13_009
// 019   ----------------------------------------
	BYTE	PATT
	 POIN2	sans_13_011
// 020   ----------------------------------------
	BYTE		N06     Cn1   v100
	BYTE		N06     Gs1 
	BYTE		N24     Cs2 
	BYTE	W12
	BYTE		N06     Dn1 
	BYTE	W12
	BYTE		        Cn1 
	BYTE		N06     Gs1 
	BYTE	W06
	BYTE		        Cn1 
	BYTE	W06
	BYTE		        Dn1 
	BYTE	W12
	BYTE		        Cn1 
	BYTE		N06     Gs1 
	BYTE	W06
	BYTE		        Cn1 
	BYTE	W06
	BYTE		        Dn1 
	BYTE	W06
	BYTE		        Cn1 
	BYTE	W06
	BYTE		N06   
	BYTE		N06     Gs1 
	BYTE	W12
	BYTE		        Dn1 
	BYTE	W12
// 021   ----------------------------------------
	BYTE	PATT
	 POIN2	sans_13_009
// 022   ----------------------------------------
	BYTE	PATT
	 POIN2	sans_13_009
// 023   ----------------------------------------
	BYTE	PATT
	 POIN2	sans_13_011
// 024   ----------------------------------------
	BYTE	PATT
	 POIN2	sans_13_009
// 025   ----------------------------------------
	BYTE	PATT
	 POIN2	sans_13_009
// 026   ----------------------------------------
	BYTE	PATT
	 POIN2	sans_13_009
// 027   ----------------------------------------
	BYTE		N06     Cn1   v100
	BYTE		N06     Gs1 
	BYTE	W12
	BYTE		        Dn1 
	BYTE	W12
	BYTE		N06   
	BYTE		N06     Gs1 
	BYTE	W06
	BYTE		        Cn1 
	BYTE	W06
	BYTE		        Dn1 
	BYTE	W12
	BYTE		        Cn1 
	BYTE		N06     Dn1 
	BYTE		N12     Cs2 
	BYTE	W06
	BYTE		N06     Dn1 
	BYTE	W12
	BYTE		        Cn1 
	BYTE		N06     Dn1 
	BYTE		N12     Cs2 
	BYTE	W06
	BYTE		N06     Dn1 
	BYTE	W12
	BYTE		        Cn1 
	BYTE		N06     Dn1 
	BYTE		N12     Cs2 
	BYTE	W06
	BYTE		N06     Dn1 
	BYTE	W06
// 028   ----------------------------------------
	BYTE	PATT
	 POIN2	sans_13_009
// 029   ----------------------------------------
	BYTE	PATT
	 POIN2	sans_13_009
// 030   ----------------------------------------
	BYTE	PATT
	 POIN2	sans_13_009
// 031   ----------------------------------------
	BYTE	PATT
	 POIN2	sans_13_011
// 032   ----------------------------------------
	BYTE	PATT
	 POIN2	sans_13_009
// 033   ----------------------------------------
	BYTE	PATT
	 POIN2	sans_13_009
// 034   ----------------------------------------
	BYTE	PATT
	 POIN2	sans_13_009
// 035   ----------------------------------------
	BYTE	PATT
	 POIN2	sans_13_011
// 036   ----------------------------------------
	BYTE	PATT
	 POIN2	sans_13_009
// 037   ----------------------------------------
	BYTE	PATT
	 POIN2	sans_13_009
// 038   ----------------------------------------
	BYTE	PATT
	 POIN2	sans_13_009
// 039   ----------------------------------------
	BYTE	PATT
	 POIN2	sans_13_011
// 040   ----------------------------------------
	BYTE	PATT
	 POIN2	sans_13_009
// 041   ----------------------------------------
	BYTE	PATT
	 POIN2	sans_13_009
// 042   ----------------------------------------
	BYTE	PATT
	 POIN2	sans_13_009
// 043   ----------------------------------------
	BYTE	PATT
	 POIN2	sans_13_009
// 044   ----------------------------------------
	BYTE	PATT
	 POIN2	sans_13_009
// 045   ----------------------------------------
	BYTE	PATT
	 POIN2	sans_13_009
// 046   ----------------------------------------
	BYTE	PATT
	 POIN2	sans_13_009
// 047   ----------------------------------------
	BYTE	PATT
	 POIN2	sans_13_009
// 048   ----------------------------------------
	BYTE	PATT
	 POIN2	sans_13_009
// 049   ----------------------------------------
	BYTE	PATT
	 POIN2	sans_13_009
// 050   ----------------------------------------
	BYTE	PATT
	 POIN2	sans_13_009
// 051   ----------------------------------------
	BYTE	PATT
	 POIN2	sans_13_009
// 052   ----------------------------------------
	BYTE	PATT
	 POIN2	sans_13_009
// 053   ----------------------------------------
	BYTE	PATT
	 POIN2	sans_13_009
// 054   ----------------------------------------
	BYTE	W96
// 055   ----------------------------------------
	BYTE	W48
	BYTE		N06     Dn1   v100
	BYTE		N12     Cs2 
	BYTE	W06
	BYTE		N06     Cn1 
	BYTE	W12
	BYTE		        Dn1 
	BYTE		N12     Cs2 
	BYTE	W06
	BYTE		N06     Cn1 
	BYTE		N06     Dn1 
	BYTE	W12
	BYTE		        Cn1 
	BYTE		N06     Dn1 
	BYTE		N12     Cs2 
	BYTE	W06
	BYTE		N06     Cn1 
	BYTE		N06     Dn1 
	BYTE	W06
// 056   ----------------------------------------
	BYTE	PATT
	 POIN2	sans_13_009
// 057   ----------------------------------------
	BYTE	PATT
	 POIN2	sans_13_009
// 058   ----------------------------------------
	BYTE	PATT
	 POIN2	sans_13_009
// 059   ----------------------------------------
	BYTE	PATT
	 POIN2	sans_13_009
// 060   ----------------------------------------
	BYTE	PATT
	 POIN2	sans_13_009
// 061   ----------------------------------------
	BYTE	PATT
	 POIN2	sans_13_009
// 062   ----------------------------------------
	BYTE	PATT
	 POIN2	sans_13_009
// 063   ----------------------------------------
	BYTE	PATT
	 POIN2	sans_13_009
// 064   ----------------------------------------
	BYTE	PATT
	 POIN2	sans_13_009
// 065   ----------------------------------------
	BYTE	PATT
	 POIN2	sans_13_009
// 066   ----------------------------------------
	BYTE	PATT
	 POIN2	sans_13_009
// 067   ----------------------------------------
	BYTE	PATT
	 POIN2	sans_13_009
// 068   ----------------------------------------
	BYTE	PATT
	 POIN2	sans_13_009
// 069   ----------------------------------------
	BYTE	PATT
	 POIN2	sans_13_009
// 070   ----------------------------------------
	BYTE	PATT
	 POIN2	sans_13_009
// 071   ----------------------------------------
	BYTE	PATT
	 POIN2	sans_13_009
// 072   ----------------------------------------
	BYTE	W96
// 073   ----------------------------------------
	BYTE	W96
// 074   ----------------------------------------
	BYTE	W96
// 075   ----------------------------------------
	BYTE	W96
// 076   ----------------------------------------
	BYTE	W96
// 077   ----------------------------------------
	BYTE	W96
	BYTE	GoTo
	 POIN2	sans_13_B1
sans_13_B2:
// 078   ----------------------------------------
	BYTE		BEND    c_v+0
	BYTE	FINE

//******************************************************//
	ALIGN 4

sans:
	BYTE	13	// NumTrks
	BYTE	0	// NumBlks
	BYTE	sans_pri	// Priority
	BYTE	sans_rev	// Reverb.

	POIN2	sans_grp

	POIN2	sans_1
	POIN2	sans_2
	POIN2	sans_3
	POIN2	sans_4
	POIN2	sans_5
	POIN2	sans_6
	POIN2	sans_7
	POIN2	sans_8
	POIN2	sans_9
	POIN2	sans_10
	POIN2	sans_11
	POIN2	sans_12
	POIN2	sans_13

	
